<?xml version="1.0" standalone="no"?>
<!DOCTYPE svg PUBLIC "-//W3C//DTD SVG 20010904//EN"
 "http://www.w3.org/TR/2001/REC-SVG-20010904/DTD/svg10.dtd">
<svg version="1.0" xmlns="http://www.w3.org/2000/svg"
 width="569.000000pt" height="570.000000pt" viewBox="0 0 569.000000 570.000000"
 preserveAspectRatio="xMidYMid meet">

<g transform="translate(0.000000,570.000000) scale(0.100000,-0.100000)"
fill="#000000" stroke="none">
<path d="M2445 5146 c-526 -190 -526 -190 -525 -201 1 -5 78 -34 172 -63 l170
-54 32 30 c103 98 388 162 634 141 182 -16 378 -81 438 -146 l25 -26 57 18
c31 9 63 20 70 22 21 8 16 -155 -5 -179 -14 -16 -15 -24 -5 -50 9 -25 9 -43
-3 -87 -20 -79 -33 -191 -23 -197 14 -9 26 5 34 39 l8 32 6 -34 c7 -46 27 -50
39 -9 9 32 9 32 10 6 1 -21 6 -28 21 -28 11 0 20 4 20 8 0 18 -38 218 -45 233
-3 10 -2 20 4 24 16 9 13 51 -4 65 -13 10 -15 32 -13 104 l3 90 93 29 c50 16
92 33 92 37 0 7 -908 330 -926 330 -5 -1 -175 -61 -379 -134z"/>
<path d="M2600 4931 c-175 -39 -281 -90 -299 -142 -6 -18 -11 -80 -11 -139 l0
-107 80 -7 c109 -9 236 -47 359 -107 l103 -51 92 45 c50 25 119 55 153 66 62
21 216 51 259 51 24 0 24 0 24 128 0 150 -1 151 -111 201 -125 57 -207 73
-394 77 -140 3 -185 0 -255 -15z m-145 -331 c39 -6 99 -19 135 -31 94 -29 254
-109 243 -120 -6 -6 -45 7 -104 35 -110 52 -225 85 -326 93 -52 4 -73 10 -73
19 0 17 29 17 125 4z"/>
<path d="M2190 4673 c-14 -9 -38 -29 -55 -44 -27 -24 -40 -27 -122 -32 -74 -3
-104 -10 -147 -31 -115 -56 -194 -167 -204 -284 -4 -51 -9 -65 -26 -74 -120
-62 -206 -208 -206 -350 0 -57 -2 -63 -41 -105 -22 -25 -53 -70 -67 -101 -23
-49 -27 -70 -27 -152 0 -83 3 -102 28 -155 15 -33 35 -67 43 -76 14 -15 13
-21 -6 -59 -45 -89 -45 -207 1 -295 19 -36 20 -44 9 -91 -7 -30 -11 -86 -8
-131 8 -138 78 -248 198 -312 57 -30 60 -34 60 -69 0 -20 7 -59 15 -85 48
-160 165 -265 336 -304 68 -15 70 -17 93 -62 28 -55 106 -130 166 -161 23 -12
73 -28 111 -36 170 -35 343 44 453 207 l34 51 35 -54 c121 -190 374 -266 563
-170 61 31 127 95 158 153 16 30 30 55 30 56 1 1 33 8 73 17 122 25 215 85
279 180 38 56 74 159 74 212 0 30 5 36 51 60 70 35 139 107 173 178 33 70 45
188 27 261 -11 43 -9 53 15 113 37 91 37 187 1 265 l-25 55 26 38 c91 134 79
340 -27 456 -47 52 -48 54 -54 133 -3 44 -14 105 -26 135 -24 64 -93 147 -155
186 -41 26 -44 31 -48 80 -6 71 -57 171 -114 224 -54 49 -132 87 -199 97 -47
6 -48 6 -42 -18 4 -13 7 -31 7 -40 0 -11 15 -20 48 -28 66 -17 136 -65 170
-117 32 -47 58 -132 45 -145 -4 -4 -26 -4 -48 1 -55 13 -65 12 -65 -5 0 -9 -9
-15 -25 -15 -17 0 -33 12 -56 46 -28 41 -33 44 -47 31 -14 -14 -13 -18 1 -41
23 -34 22 -41 -10 -82 -24 -29 -34 -34 -70 -34 -40 0 -45 4 -99 70 l-58 70
-81 0 c-76 0 -83 2 -94 24 -42 77 -151 46 -151 -43 0 -31 6 -44 30 -64 l30
-26 0 -118 0 -119 -45 -44 c-47 -46 -55 -64 -31 -73 7 -3 35 17 65 47 l51 52
0 127 0 128 35 34 c33 33 38 35 102 35 l68 -1 55 -67 56 -67 57 -3 c52 -3 58
-6 72 -32 29 -57 102 -76 149 -39 15 11 34 18 44 15 9 -3 48 -37 85 -74 67
-67 68 -71 102 -182 34 -113 34 -114 15 -132 -43 -40 -31 -110 22 -136 23 -11
33 -10 63 2 66 28 69 101 4 144 -28 19 -37 35 -50 85 -45 173 -43 169 -144
265 -62 59 -95 98 -95 112 0 12 -5 31 -11 42 -10 19 -9 20 17 14 60 -14 141
-63 195 -116 69 -68 93 -131 94 -242 l0 -76 46 -44 c71 -66 94 -117 94 -213 0
-68 -4 -89 -29 -138 -30 -62 -29 -62 -94 -35 -28 11 -34 11 -42 -2 -20 -31 -9
-55 38 -85 82 -52 113 -157 80 -267 -14 -48 -73 -117 -133 -155 -47 -29 -52
-41 -35 -74 15 -27 30 -24 89 16 62 41 66 36 59 -63 -11 -155 -138 -283 -281
-283 -67 0 -94 11 -136 55 -40 41 -51 44 -75 17 -14 -15 -15 -24 -7 -40 6 -11
11 -22 11 -25 0 -3 -78 -6 -172 -6 l-173 0 -146 146 c-129 129 -147 143 -159
129 -12 -14 5 -35 140 -170 l153 -154 197 6 c186 5 199 4 238 -16 22 -11 66
-24 97 -27 l57 -7 -5 -34 c-10 -57 -56 -146 -99 -190 -52 -53 -156 -101 -236
-109 l-62 -7 -30 -62 c-34 -71 -90 -127 -159 -159 -66 -30 -206 -30 -274 1
-71 33 -151 115 -192 196 l-35 70 0 278 c0 259 -1 279 -17 279 -10 0 -28 3
-40 6 l-23 6 0 -281 0 -281 -36 -71 c-44 -88 -116 -162 -192 -197 -49 -23 -70
-27 -147 -27 -84 0 -94 2 -154 35 -69 37 -114 88 -142 163 -14 35 -22 42 -45
44 -59 5 -140 26 -178 45 -93 47 -176 158 -192 255 l-6 40 55 6 c30 3 72 14
93 25 36 17 56 19 239 15 l200 -5 100 101 c55 56 95 101 89 101 -31 0 -85 -35
-139 -89 l-59 -61 -173 0 c-95 0 -173 3 -173 6 0 3 5 14 11 25 8 16 7 25 -7
40 -24 26 -35 24 -74 -16 -50 -51 -105 -70 -169 -56 -73 15 -120 42 -169 94
-52 57 -72 104 -79 189 -9 99 -4 104 58 63 58 -40 67 -42 85 -17 21 28 16 46
-18 67 -55 32 -120 98 -139 140 -12 25 -19 64 -19 104 0 89 27 144 92 184 39
25 48 35 48 59 0 37 -22 45 -66 24 -19 -9 -39 -16 -44 -16 -5 0 -21 26 -37 57
-23 48 -28 71 -28 133 1 93 24 147 95 214 47 45 50 50 44 86 -10 59 14 172 45
223 47 72 147 142 250 172 21 6 23 5 16 -11 -4 -11 -10 -30 -12 -44 -3 -15
-43 -61 -100 -115 l-95 -90 -32 -119 c-29 -107 -35 -122 -62 -136 -58 -33 -67
-101 -17 -140 56 -44 133 -3 133 70 0 10 -11 31 -24 47 -23 26 -23 29 -9 78
53 188 46 175 132 253 l80 72 33 -20 c18 -11 47 -20 64 -20 36 0 81 32 94 66
8 21 16 24 64 24 l55 0 57 70 58 70 69 0 c66 0 70 -1 103 -36 l34 -37 0 -126
1 -126 50 -53 c31 -34 55 -52 64 -48 24 9 18 24 -30 75 l-45 48 0 117 0 117
30 26 c24 20 30 33 30 64 0 88 -116 122 -152 44 -11 -24 -15 -25 -93 -25 l-82
0 -62 -70 c-60 -67 -65 -70 -107 -70 -24 0 -44 4 -44 9 0 5 -12 23 -26 40
l-26 31 72 118 c88 142 141 214 175 232 21 11 25 20 25 62 0 52 -3 55 -40 31z
m-127 -160 c8 -13 -150 -277 -170 -284 -27 -11 -33 -10 -33 5 0 23 -11 25 -64
15 -27 -5 -51 -7 -54 -5 -2 3 1 29 8 59 19 95 84 164 185 199 52 18 121 24
128 11z m435 -215 c31 -31 -2 -73 -45 -57 -38 14 -24 69 17 69 9 0 21 -5 28
-12z m720 0 c16 -16 15 -33 -3 -51 -19 -19 -52 -11 -60 15 -12 37 35 64 63 36z
m-1260 -146 c16 -21 15 -33 -4 -60 -28 -40 -94 -17 -94 34 0 47 67 65 98 26z
m1826 12 c31 -31 7 -94 -36 -94 -22 0 -58 34 -58 55 0 21 36 55 59 55 11 0 27
-7 35 -16z m-2204 -539 c20 -25 8 -50 -25 -50 -21 0 -31 5 -33 18 -4 21 14 47
33 47 7 0 18 -7 25 -15z m2557 -1 c9 -24 -10 -49 -38 -49 -24 0 -36 23 -25 51
7 19 55 18 63 -2z"/>
<path d="M3427 4673 c-13 -12 -7 -60 8 -73 14 -12 15 -8 9 31 -8 50 -8 51 -17
42z"/>
<path d="M2290 4456 c0 -24 0 -24 128 -28 l128 -3 82 -75 81 -75 1 -79 0 -78
-72 -74 c-69 -71 -71 -75 -54 -92 17 -16 22 -13 97 68 l79 84 0 97 0 97 -62
55 c-35 30 -78 62 -96 71 -42 22 -203 56 -264 56 -44 0 -48 -2 -48 -24z"/>
<path d="M3189 4460 c-114 -25 -137 -35 -219 -100 l-69 -55 0 -103 -1 -103 80
-81 c76 -77 81 -80 99 -64 18 16 15 19 -55 88 l-74 71 0 81 0 81 79 70 c43 38
89 73 102 76 13 4 70 7 127 8 102 1 102 1 102 26 0 23 -4 25 -42 24 -24 0 -82
-9 -129 -19z"/>
<path d="M2173 4124 c-4 -11 14 -36 56 -78 61 -61 61 -62 61 -120 0 -52 -3
-61 -30 -86 -59 -55 -27 -140 51 -140 76 0 106 86 49 140 -28 26 -30 33 -30
97 l0 69 -68 67 c-37 37 -71 67 -75 67 -4 0 -10 -7 -14 -16z m172 -334 c13
-41 -43 -70 -64 -33 -13 25 5 53 34 53 15 0 26 -7 30 -20z"/>
<path d="M3391 4076 l-64 -65 2 -68 c2 -64 0 -70 -29 -98 -56 -54 -25 -145 50
-145 74 0 106 88 50 140 -27 25 -30 34 -30 90 0 61 1 62 55 119 53 56 69 91
42 91 -7 0 -41 -29 -76 -64z m-23 -265 c8 -4 12 -19 10 -32 -2 -17 -10 -25
-29 -27 -31 -4 -44 19 -29 49 11 20 27 24 48 10z"/>
<path d="M2671 3838 c-83 -99 -151 -185 -151 -190 0 -4 43 -8 96 -8 l96 0 -5
-242 c-4 -211 -7 -253 -26 -317 -50 -171 -167 -347 -306 -460 -40 -32 -40 -32
-10 -25 143 33 343 183 440 330 103 155 135 274 142 527 l6 187 94 0 c86 0 93
1 84 18 -18 32 -291 362 -301 362 -5 0 -77 -82 -159 -182z"/>
<path d="M1998 3852 c-21 -47 -117 -334 -122 -366 0 -4 35 -18 79 -30 209 -58
369 -145 563 -309 72 -60 97 -76 104 -66 12 19 -111 133 -232 214 -120 80
-237 137 -365 177 -55 17 -102 33 -104 34 -2 2 100 318 127 392 2 6 -2 12 -10
12 -7 0 -25 -26 -40 -58z"/>
<path d="M3610 3902 c0 -5 29 -96 64 -203 36 -106 64 -194 63 -195 -1 0 -47
-15 -102 -32 -143 -45 -304 -127 -421 -215 -114 -86 -273 -246 -335 -339 -23
-35 -48 -67 -56 -71 -22 -13 -15 -27 15 -27 17 0 49 16 82 41 125 94 428 215
810 324 174 50 185 54 182 76 -1 12 -5 25 -8 28 -17 17 -491 -127 -654 -199
-83 -37 -178 -79 -192 -87 -5 -2 -8 -2 -8 0 0 3 46 34 103 71 184 117 431 224
625 271 45 11 72 23 72 31 0 19 -17 18 -133 -12 -204 -51 -415 -147 -607 -276
l-105 -71 50 52 c70 73 235 200 330 254 93 54 200 98 314 130 45 12 81 26 81
30 0 17 -113 352 -120 357 -4 3 -11 20 -15 38 -3 18 -13 32 -21 32 -8 0 -14
-4 -14 -8z"/>
<path d="M1785 3787 c-35 -99 -204 -617 -207 -631 -2 -16 5 -22 37 -29 193
-44 504 -139 759 -232 l130 -47 18 24 c9 12 18 28 18 35 0 6 -37 26 -82 43
-183 70 -715 240 -753 240 -8 0 -16 4 -19 9 -3 4 35 130 84 279 79 236 98 302
87 302 -1 0 -17 4 -35 9 -24 7 -34 7 -37 -2z"/>
<path d="M3817 3788 c-21 -7 -27 -15 -22 -27 4 -9 33 -99 66 -199 32 -101 61
-187 63 -190 2 -4 15 -44 29 -90 18 -59 22 -84 14 -87 -7 -2 -61 -18 -122 -35
-201 -58 -508 -162 -685 -232 -146 -58 -178 -74 -192 -98 -28 -48 -64 -65
-143 -65 -57 0 -76 -4 -98 -21 -15 -12 -27 -25 -27 -28 0 -16 74 -36 132 -36
80 0 137 26 192 84 36 39 59 51 201 104 243 91 535 186 704 229 105 26 151 42
151 52 0 33 -212 651 -223 650 -7 0 -25 -5 -40 -11z"/>
<path d="M2080 3606 c0 -9 17 -20 43 -27 129 -34 338 -160 455 -275 48 -48 72
-65 72 -54 0 23 -107 130 -185 185 -75 53 -169 105 -260 143 -95 40 -125 46
-125 28z"/>
<path d="M3500 3601 c-77 -24 -213 -94 -290 -149 -86 -61 -210 -183 -210 -206
0 -13 27 7 90 68 126 121 267 209 417 260 37 12 69 28 71 34 5 16 -12 14 -78
-7z"/>
<path d="M1810 3378 c0 -8 41 -24 100 -40 138 -38 276 -90 401 -153 115 -57
273 -154 265 -163 -3 -3 -11 0 -18 5 -16 12 -203 89 -318 131 -113 42 -264 87
-384 116 l-98 24 -10 -24 c-6 -13 -9 -26 -6 -29 2 -2 83 -27 179 -54 221 -63
393 -121 537 -182 l113 -48 20 46 c11 25 18 47 17 48 -46 33 -227 138 -297
171 -120 59 -197 88 -346 130 -130 37 -155 41 -155 22z"/>
<path d="M1575 2995 c-14 -13 -25 -33 -25 -44 0 -87 109 -131 152 -61 12 18
23 20 112 20 l100 0 73 -56 c65 -50 73 -60 73 -90 0 -28 -6 -38 -40 -59 -21
-13 -44 -34 -51 -46 -11 -21 -16 -21 -108 -15 -72 5 -98 10 -106 22 -26 42
-43 55 -76 60 -80 13 -126 -90 -64 -143 35 -30 76 -29 115 3 28 24 36 26 83
20 144 -18 135 -14 157 -62 29 -67 97 -91 164 -59 44 21 68 65 65 121 -3 43
-1 46 75 123 69 69 75 79 61 91 -14 12 -25 4 -89 -59 l-73 -72 -36 17 c-34 16
-36 21 -39 68 l-3 51 -89 67 -88 68 -104 0 c-63 0 -104 4 -104 10 0 6 -9 19
-20 30 -29 29 -84 27 -115 -5z m95 -54 c0 -28 -28 -47 -48 -34 -24 15 -27 44
-7 59 22 17 55 1 55 -25z m30 -276 c20 -24 3 -55 -30 -55 -20 0 -31 6 -35 20
-8 25 10 50 35 50 10 0 23 -7 30 -15z m416 -13 c54 -35 24 -122 -42 -122 -25
0 -64 40 -64 65 0 36 28 65 63 65 18 0 37 -4 43 -8z"/>
<path d="M3961 2991 c-29 -31 -64 -39 -181 -40 -52 -1 -59 -5 -137 -66 l-83
-65 0 -48 c0 -44 -2 -48 -38 -68 l-37 -20 -71 68 c-74 70 -90 79 -101 52 -4
-10 18 -37 68 -83 73 -67 74 -69 74 -117 0 -35 7 -58 23 -81 26 -36 85 -59
125 -49 38 9 85 53 92 85 7 31 11 32 142 47 57 6 64 5 93 -20 38 -31 78 -33
114 -5 51 40 28 128 -38 145 -31 8 -78 -15 -91 -43 -13 -29 -16 -30 -127 -39
-93 -6 -93 -6 -107 19 -8 15 -29 33 -47 42 -30 14 -34 21 -34 55 0 36 5 42 71
94 l71 56 102 0 c91 0 102 -2 114 -20 47 -75 166 -17 147 72 -14 62 -97 79
-144 29z m99 -50 c0 -28 -28 -47 -48 -34 -24 15 -27 44 -7 59 22 17 55 1 55
-25z m-40 -280 c5 -11 7 -27 4 -36 -9 -23 -68 -16 -72 8 -8 41 48 64 68 28z
m-406 -12 c19 -15 26 -30 26 -54 0 -58 -69 -86 -110 -45 -36 36 -21 94 30 113
24 9 26 8 54 -14z"/>
<path d="M2620 2477 l0 -143 -29 -22 c-16 -11 -32 -33 -35 -48 -21 -81 81
-138 139 -79 35 34 33 76 -5 118 l-30 35 0 141 c0 134 -1 141 -20 141 -19 0
-20 -7 -20 -143z m45 -232 c0 -27 -3 -30 -30 -30 -21 0 -31 5 -33 18 -5 25 17
49 42 45 16 -2 21 -10 21 -33z"/>
<path d="M3000 2476 c0 -129 -2 -146 -18 -158 -47 -33 -55 -96 -17 -133 52
-53 145 -16 145 56 0 23 -9 40 -35 65 l-35 33 0 140 c0 134 -1 141 -20 141
-19 0 -20 -7 -20 -144z m48 -205 c8 -4 12 -19 10 -32 -2 -19 -9 -24 -33 -24
-21 0 -31 5 -33 18 -8 40 22 60 56 38z"/>
<path d="M2437 2433 c-4 -3 -7 -23 -7 -43 0 -33 -9 -45 -84 -118 l-84 -82 -95
0 -96 0 -35 35 c-43 43 -85 47 -121 10 -52 -52 -16 -145 56 -145 22 0 39 9 59
30 28 30 28 30 143 30 l114 0 92 91 91 92 0 53 c0 38 -4 54 -13 54 -8 0 -17
-3 -20 -7z m-436 -239 c17 -21 0 -49 -31 -49 -31 0 -48 28 -31 49 8 9 21 16
31 16 10 0 23 -7 31 -16z"/>
<path d="M3187 2434 c-4 -4 -7 -27 -7 -52 0 -43 4 -48 92 -138 l92 -94 117 0
c117 0 118 0 147 -30 39 -39 75 -39 113 -1 31 31 36 59 17 94 -29 56 -86 63
-133 17 -30 -29 -33 -30 -140 -31 l-108 -2 -71 78 c-58 64 -72 86 -76 119 -5
39 -25 58 -43 40z m528 -259 c0 -27 -3 -30 -30 -30 -21 0 -31 5 -33 18 -6 33
6 49 35 45 24 -3 28 -8 28 -33z"/>
<path d="M2449 2183 c-3 -116 -4 -126 -18 -131 -19 -6 -57 -44 -63 -62 -4 -12
-20 -11 -101 7 -80 17 -99 18 -108 7 -19 -23 -2 -32 97 -49 54 -10 101 -24
107 -32 46 -59 67 -73 104 -73 107 0 148 138 57 192 l-34 20 0 89 c0 82 -1 89
-20 89 -18 0 -20 -7 -21 -57z m53 -190 c41 -37 3 -106 -50 -87 -33 12 -42 56
-16 85 21 23 42 24 66 2z"/>
<path d="M3170 2152 l0 -90 -34 -20 c-65 -39 -69 -124 -8 -172 50 -40 139 -15
162 44 7 19 24 25 109 41 85 15 101 21 101 37 0 22 -31 23 -115 3 -82 -20 -88
-19 -107 15 -9 17 -28 34 -42 40 -24 9 -25 14 -28 97 -3 74 -6 88 -20 91 -16
3 -18 -6 -18 -86z m51 -152 c13 -7 19 -21 19 -45 0 -50 -50 -73 -84 -39 -31
30 -10 94 30 94 9 0 24 -5 35 -10z"/>
<path d="M500 906 l0 -266 65 0 65 0 0 75 0 75 89 0 c130 0 194 28 231 100 45
88 12 204 -70 250 -42 23 -56 25 -212 28 l-168 4 0 -266z m289 153 c36 -13 51
-35 51 -78 0 -68 -35 -91 -140 -91 l-70 0 0 90 0 90 64 0 c34 0 77 -5 95 -11z"/>
<path d="M1060 906 l0 -266 65 0 65 0 0 75 0 75 59 0 59 0 44 -75 43 -75 68 0
c37 0 67 3 67 6 0 3 -22 40 -50 81 -27 41 -50 78 -50 82 0 4 13 14 29 24 16 9
39 37 50 60 44 92 14 201 -69 247 -42 23 -56 25 -212 28 l-168 4 0 -266z m286
154 c37 -15 53 -38 54 -81 0 -26 -7 -42 -26 -60 -22 -21 -35 -24 -102 -24
l-77 0 -3 88 -3 87 65 0 c36 0 77 -5 92 -10z"/>
<path d="M1696 923 c-59 -136 -110 -256 -113 -265 -5 -16 2 -18 58 -18 l64 0
20 53 21 52 124 0 124 0 21 -52 20 -53 67 0 c38 0 68 1 68 3 0 1 -51 119 -114
262 l-114 260 -69 3 -69 3 -108 -248z m217 20 c19 -49 33 -91 30 -95 -2 -5
-35 -8 -73 -8 -38 0 -71 3 -73 8 -6 9 64 182 74 182 4 0 23 -39 42 -87z"/>
<path d="M2230 905 l0 -265 65 0 65 0 0 61 c0 55 3 64 37 104 20 24 40 42 45
39 5 -3 42 -50 84 -105 l75 -99 76 0 c59 0 73 3 65 13 -5 6 -55 75 -111 152
l-101 139 27 31 c15 16 64 67 108 113 l80 82 -77 0 -76 0 -107 -115 c-59 -63
-111 -115 -116 -115 -5 0 -9 52 -9 115 l0 115 -65 0 -65 0 0 -265z"/>
<path d="M2750 1120 l0 -49 88 -3 87 -3 3 -212 2 -213 60 0 60 0 2 213 3 212
83 3 82 3 0 49 0 50 -235 0 -235 0 0 -50z"/>
<path d="M3300 905 l0 -265 65 0 65 0 0 265 0 265 -65 0 -65 0 0 -265z"/>
<path d="M3560 905 l0 -265 65 0 65 0 0 68 c1 63 3 69 36 105 19 21 39 35 43
32 5 -3 41 -50 81 -105 l72 -100 75 0 74 0 -22 33 c-13 17 -60 84 -106 148
-46 65 -83 122 -83 129 0 7 44 58 98 113 l97 102 -70 3 -70 3 -112 -118 -112
-118 -1 118 0 117 -65 0 -65 0 0 -265z"/>
<path d="M4518 1018 c-37 -84 -90 -204 -117 -265 l-50 -113 67 0 67 0 20 53
21 52 124 0 125 0 20 -52 20 -53 68 0 c37 0 67 1 67 3 0 1 -51 119 -114 262
l-114 260 -68 3 -69 3 -67 -153z m173 -71 c20 -50 35 -95 32 -99 -2 -5 -35 -8
-73 -8 -38 0 -71 3 -73 8 -5 8 65 191 73 192 3 0 21 -42 41 -93z"/>
<path d="M5020 905 l0 -265 65 0 65 0 0 265 0 265 -65 0 -65 0 0 -265z"/>
<path d="M4100 860 l0 -51 108 3 107 3 3 48 3 47 -110 0 -111 0 0 -50z"/>
</g>
</svg>
