<?xml version="1.0" standalone="no"?>
<!DOCTYPE svg PUBLIC "-//W3C//DTD SVG 20010904//EN"
 "http://www.w3.org/TR/2001/REC-SVG-20010904/DTD/svg10.dtd">
<svg version="1.0" xmlns="http://www.w3.org/2000/svg"
 width="1000.000000pt" height="462.000000pt" viewBox="0 0 1000.000000 462.000000"
 preserveAspectRatio="xMidYMid meet">

<g transform="translate(0.000000,462.000000) scale(0.100000,-0.100000)"
fill="#000000" stroke="none">
<path d="M1940 3419 c-88 -8 -176 -29 -268 -65 -63 -25 -152 -72 -152 -79 0
-2 24 7 54 20 166 73 390 89 581 40 33 -8 105 -37 160 -64 223 -110 380 -298
447 -536 30 -108 30 -294 0 -406 -71 -264 -286 -495 -526 -564 -91 -27 -234
-18 -306 19 -75 37 -143 106 -177 180 -24 52 -28 74 -28 146 0 110 32 186 111
260 82 78 128 95 254 95 99 0 109 -2 165 -32 77 -40 137 -102 172 -178 23 -51
28 -73 28 -147 l0 -87 22 36 c11 19 33 72 48 117 110 333 -56 711 -380 862
-128 59 -176 69 -330 69 -127 -1 -148 -3 -220 -29 -241 -84 -405 -259 -472
-506 -28 -102 -25 -302 5 -400 85 -269 310 -496 584 -590 121 -41 218 -54 360
-47 286 13 540 145 709 369 177 236 236 514 169 797 -109 456 -537 761 -1010
720z"/>
<path d="M8780 3223 c-63 -19 -116 -36 -117 -37 -1 -1 4 -22 11 -46 10 -31 19
-45 30 -44 28 3 231 55 244 62 19 12 -10 97 -34 99 -10 1 -71 -14 -134 -34z"/>
<path d="M3880 3062 c-25 -9 -58 -25 -75 -34 -51 -28 -123 -110 -152 -173 -25
-53 -28 -71 -28 -160 0 -89 3 -107 29 -162 35 -76 113 -153 193 -191 51 -24
70 -27 158 -27 93 0 105 2 166 32 80 39 150 111 187 191 24 50 27 69 27 157 0
88 -3 107 -27 157 -37 80 -107 152 -186 190 -56 28 -77 33 -156 35 -67 2 -103
-2 -136 -15z m244 -150 c145 -79 168 -280 44 -399 -45 -44 -96 -63 -168 -63
-75 0 -123 23 -177 84 -70 79 -83 185 -35 276 67 128 208 171 336 102z"/>
<path d="M4595 3062 c-116 -54 -160 -199 -91 -302 32 -49 69 -73 156 -102 85
-28 120 -63 120 -118 0 -58 -33 -90 -95 -90 -51 0 -95 32 -95 70 0 18 -6 20
-76 20 l-76 0 6 -37 c32 -179 261 -254 400 -132 53 47 79 105 78 181 0 106
-59 172 -195 221 -107 39 -142 87 -102 144 32 45 118 31 131 -22 6 -24 10 -25
81 -25 l75 0 -7 33 c-12 54 -48 110 -93 141 -56 39 -154 47 -217 18z"/>
<path d="M7460 3069 c-101 -41 -156 -149 -126 -251 21 -74 70 -119 173 -158
116 -44 156 -98 121 -163 -18 -34 -40 -46 -84 -47 -48 0 -88 27 -98 65 -6 24
-10 25 -76 25 -70 0 -70 0 -70 -27 1 -75 82 -170 165 -193 150 -42 296 53 312
204 12 116 -45 191 -188 246 -104 40 -119 52 -119 101 0 85 101 104 138 26 12
-26 17 -27 83 -27 65 0 69 1 69 23 -1 61 -64 143 -132 171 -42 18 -130 20
-168 5z"/>
<path d="M4960 3000 l0 -70 65 0 65 0 0 -300 0 -300 70 0 70 0 0 300 0 300 70
0 70 0 0 70 0 70 -205 0 -205 0 0 -70z"/>
<path d="M5440 2700 l0 -370 70 0 69 0 3 136 3 135 93 -135 93 -136 84 0 c47
0 85 1 85 3 0 1 -42 61 -94 132 l-95 130 49 23 c63 29 106 82 126 151 26 87 6
161 -64 234 -53 54 -106 67 -279 67 l-143 0 0 -370z m313 210 c14 -11 31 -36
37 -55 10 -30 9 -41 -7 -72 -24 -49 -53 -63 -135 -63 l-68 0 0 105 0 105 74 0
c58 0 79 -4 99 -20z"/>
<path d="M6127 2714 c-82 -195 -151 -362 -154 -370 -5 -13 7 -14 73 -12 l78 3
40 93 39 93 130 -3 130 -3 38 -90 37 -90 77 -3 c71 -3 77 -1 71 15 -4 10 -73
177 -154 370 l-147 353 -55 0 -55 0 -148 -356z m241 49 c18 -54 32 -101 32
-105 0 -14 -140 -9 -140 4 0 17 64 198 70 198 3 0 20 -44 38 -97z"/>
<path d="M6592 3061 c2 -5 66 -171 143 -370 l140 -361 60 0 60 0 140 362 c77
198 142 365 143 370 2 4 -30 8 -71 8 l-74 0 -93 -262 c-51 -145 -96 -269 -100
-277 -8 -16 -11 -10 -125 317 l-78 222 -74 0 c-41 0 -73 -4 -71 -9z"/>
<path d="M7870 2700 l0 -370 70 0 69 0 3 156 3 157 110 -156 110 -157 83 0
c45 0 82 2 82 4 0 2 -61 86 -135 186 -81 108 -133 186 -128 193 4 7 65 87 135
179 70 91 128 169 128 172 0 4 -37 6 -82 4 l-82 -3 -111 -155 -110 -154 -3
157 -3 157 -69 0 -70 0 0 -370z"/>
<path d="M8733 3053 c-4 -10 -73 -177 -154 -370 l-147 -353 78 0 78 0 39 93
40 92 130 3 130 3 39 -96 39 -95 77 0 78 0 -19 48 c-11 26 -80 191 -154 367
l-135 320 -56 3 c-47 2 -57 0 -63 -15z m108 -310 c16 -48 29 -88 29 -90 0 -2
-34 -3 -75 -3 -41 0 -75 2 -75 4 0 3 16 50 37 106 41 116 39 116 84 -17z"/>
<path d="M912 2757 c-141 -425 -33 -884 283 -1202 225 -226 508 -344 831 -345
202 0 371 41 551 134 116 60 199 124 303 233 162 168 255 347 306 583 24 112
24 343 0 450 -19 85 -66 233 -72 227 -3 -2 3 -35 13 -73 13 -52 17 -111 17
-239 0 -187 -15 -272 -75 -418 -135 -327 -414 -572 -757 -664 -88 -24 -114
-27 -282 -27 -169 0 -193 2 -283 26 -432 118 -758 476 -827 910 -16 101 -8
351 15 432 26 93 11 75 -23 -27z"/>
<path d="M3672 1863 c3 -222 10 -248 78 -287 47 -28 133 -28 180 0 68 39 75
65 78 287 l4 197 -26 0 -26 0 0 -167 c0 -185 -7 -228 -46 -264 -37 -35 -113
-34 -149 2 -37 36 -44 81 -45 267 l0 162 -26 0 -26 0 4 -197z"/>
<path d="M4330 1809 l0 -250 28 3 27 3 5 206 5 207 140 -207 c119 -176 144
-206 168 -209 l27 -3 0 250 0 251 -25 0 -25 0 -2 -202 -3 -201 -135 201 -135
201 -37 1 -38 0 0 -251z"/>
<path d="M5050 1810 l0 -250 25 0 25 0 0 250 0 250 -25 0 -25 0 0 -250z"/>
<path d="M5382 2052 c2 -5 48 -118 103 -250 132 -322 117 -322 250 0 55 133
102 245 103 250 2 4 -9 8 -26 8 -28 0 -30 -4 -113 -210 -46 -115 -86 -210 -89
-210 -3 0 -43 95 -88 210 -83 208 -84 210 -114 210 -16 0 -28 -4 -26 -8z"/>
<path d="M6120 1810 l0 -250 135 0 135 0 0 25 0 25 -110 0 -110 0 0 90 0 90
111 0 c109 0 110 0 107 23 -3 21 -8 22 -110 25 l-108 3 0 84 0 85 110 0 110 0
0 25 0 25 -135 0 -135 0 0 -250z"/>
<path d="M6700 1811 l0 -251 25 0 25 0 0 225 0 225 70 0 c78 0 133 -18 149
-48 6 -12 11 -41 11 -67 0 -64 -28 -91 -106 -100 -33 -4 -62 -7 -66 -8 -6 -2
119 -180 157 -225 2 -2 17 -2 35 0 l32 3 -66 87 c-36 48 -66 89 -66 92 0 2 13
7 30 11 92 20 135 124 91 221 -28 61 -70 77 -208 82 l-113 4 0 -251z"/>
<path d="M7292 2038 c3 -22 7 -23 120 -26 l117 -3 -120 -198 c-71 -118 -119
-210 -119 -225 l0 -26 155 0 155 0 0 25 0 24 -124 3 -124 3 119 198 c65 109
119 209 119 223 l0 24 -151 0 c-150 0 -150 0 -147 -22z"/>
<path d="M7870 1809 l0 -250 28 3 27 3 3 248 2 247 -30 0 -30 0 0 -251z"/>
<path d="M8200 2035 c0 -24 3 -25 55 -25 l55 0 0 -226 0 -225 28 3 27 3 3 223
2 222 55 0 c52 0 55 1 55 25 l0 25 -140 0 -140 0 0 -25z"/>
<path d="M8875 2028 c-7 -18 -54 -127 -104 -242 -50 -115 -91 -213 -91 -218 0
-5 12 -8 27 -6 23 3 31 14 61 86 l35 83 116 -3 115 -3 35 -82 c32 -76 38 -83
63 -83 15 0 28 2 28 5 0 4 -173 407 -201 468 -9 20 -19 27 -41 27 -23 0 -32
-6 -43 -32z m93 -148 l40 -95 -85 -3 c-47 -2 -87 -1 -90 1 -2 3 15 50 38 106
24 55 46 98 50 93 5 -4 26 -50 47 -102z"/>
</g>
</svg>
