<?xml version="1.0" standalone="no"?>
<!DOCTYPE svg PUBLIC "-//W3C//DTD SVG 20010904//EN"
 "http://www.w3.org/TR/2001/REC-SVG-20010904/DTD/svg10.dtd">
<svg version="1.0" xmlns="http://www.w3.org/2000/svg"
 width="3615.000000pt" height="957.000000pt" viewBox="0 0 3615.000000 957.000000"
 preserveAspectRatio="xMidYMid meet">

<g transform="translate(0.000000,957.000000) scale(0.100000,-0.100000)"
fill="#000000" stroke="none">
<path d="M21172 7597 c-36 -21 -54 -55 -59 -118 l-6 -59 -33 0 c-31 0 -34 -3
-34 -30 0 -28 3 -30 35 -30 l35 0 0 -205 0 -205 35 0 35 0 0 205 0 205 45 0
c43 0 45 1 45 30 0 29 -2 30 -45 30 l-45 0 0 43 c0 60 18 82 69 82 40 0 41 1
41 32 0 33 0 33 -47 33 -27 -1 -58 -6 -71 -13z"/>
<path d="M11860 7565 l0 -35 90 0 90 0 0 -290 0 -290 35 0 35 0 0 290 0 290
90 0 90 0 0 35 0 35 -215 0 -215 0 0 -35z"/>
<path d="M13410 7510 c0 -89 0 -90 -25 -90 -21 0 -25 -5 -25 -30 0 -25 4 -30
24 -30 l24 0 4 -172 c3 -149 6 -177 22 -200 20 -31 75 -52 121 -46 24 2 31 8
33 29 3 24 -1 27 -40 32 -65 9 -68 19 -68 199 l0 158 55 0 c54 0 55 0 55 30 0
30 -1 30 -55 30 l-55 0 0 90 0 90 -35 0 -35 0 0 -90z"/>
<path d="M16730 7275 l0 -325 35 0 35 0 0 73 c0 66 3 76 29 107 16 19 31 33
33 30 3 -3 40 -51 83 -107 75 -99 79 -103 116 -103 22 0 39 1 39 3 0 2 -45 61
-100 132 l-99 130 22 25 c13 14 53 60 91 103 l68 77 -40 0 c-39 0 -44 -4 -141
-116 l-101 -115 0 205 0 206 -35 0 -35 0 0 -325z"/>
<path d="M17220 7510 c0 -89 0 -90 -25 -90 -21 0 -25 -5 -25 -30 0 -25 4 -30
24 -30 l24 0 4 -172 c3 -149 6 -177 22 -200 20 -31 75 -52 121 -46 24 2 31 8
33 29 3 24 -1 27 -40 32 -65 9 -68 19 -68 199 l0 158 55 0 c54 0 55 0 55 30 0
30 -1 30 -55 30 l-55 0 0 90 0 90 -35 0 -35 0 0 -90z"/>
<path d="M20310 7318 c0 -249 2 -287 18 -318 20 -41 53 -60 105 -60 35 0 37 2
37 30 0 25 -4 30 -25 30 -14 0 -34 9 -45 20 -19 19 -20 33 -20 300 l0 280 -35
0 -35 0 0 -282z"/>
<path d="M25025 7548 c-10 -29 -20 -59 -23 -65 -3 -9 6 -13 24 -13 24 0 35 10
67 58 20 32 37 62 37 65 0 4 -19 7 -43 7 -43 0 -43 0 -62 -52z"/>
<path d="M27780 7510 c0 -89 0 -90 -25 -90 -21 0 -25 -5 -25 -30 0 -25 4 -30
24 -30 l24 0 4 -172 c3 -149 6 -177 22 -200 20 -31 75 -52 121 -46 24 2 31 8
33 29 3 24 -1 27 -40 32 -65 9 -68 19 -68 199 l0 158 55 0 c54 0 55 0 55 30 0
30 -1 30 -55 30 l-55 0 0 90 0 90 -35 0 -35 0 0 -90z"/>
<path d="M28275 7548 c-10 -29 -20 -59 -23 -65 -3 -9 6 -13 24 -13 24 0 35 10
67 58 20 32 37 62 37 65 0 4 -19 7 -43 7 -43 0 -43 0 -62 -52z"/>
<path d="M28670 7510 c0 -89 0 -90 -25 -90 -21 0 -25 -5 -25 -30 0 -25 4 -30
24 -30 l24 0 4 -172 c3 -149 6 -177 22 -200 20 -31 75 -52 121 -46 24 2 31 8
33 29 3 24 -1 27 -40 32 -65 9 -68 19 -68 199 l0 158 55 0 c54 0 55 0 55 30 0
30 -1 30 -55 30 l-55 0 0 90 0 90 -35 0 -35 0 0 -90z"/>
<path d="M29521 7544 c-26 -70 -26 -74 3 -74 25 0 38 15 85 93 l23 37 -45 0
-44 0 -22 -56z"/>
<path d="M16006 7574 c-30 -30 -13 -74 29 -74 27 0 45 18 45 45 0 42 -44 59
-74 29z"/>
<path d="M17756 7574 c-30 -30 -13 -74 29 -74 27 0 45 18 45 45 0 42 -44 59
-74 29z"/>
<path d="M21386 7574 c-30 -30 -13 -74 29 -74 27 0 45 18 45 45 0 42 -44 59
-74 29z"/>
<path d="M3230 7445 l0 -135 230 0 230 0 0 -530 0 -530 145 0 145 0 0 530 0
530 225 0 225 0 0 135 0 135 -600 0 -600 0 0 -135z"/>
<path d="M7472 6923 c-150 -362 -272 -661 -272 -666 0 -4 70 -6 156 -5 l156 3
43 105 43 105 278 3 279 2 43 -110 44 -110 158 0 159 0 -59 143 c-32 78 -155
376 -274 662 l-215 520 -133 3 -134 3 -272 -658z m506 15 l90 -228 -190 0
c-177 0 -190 1 -184 18 53 142 181 450 186 445 4 -5 48 -110 98 -235z"/>
<path d="M12470 7421 c-84 -26 -139 -86 -160 -172 -33 -138 38 -270 163 -300
85 -20 192 5 240 58 16 19 16 21 -4 38 -16 16 -23 17 -37 7 -38 -28 -99 -52
-132 -52 -58 0 -122 38 -147 90 -43 83 -49 80 167 80 l190 0 0 36 c0 151 -139
257 -280 215z m127 -71 c43 -19 83 -69 83 -102 0 -16 -14 -18 -155 -18 l-155
0 15 38 c18 42 54 75 99 90 46 15 67 14 113 -8z"/>
<path d="M13004 7411 c-23 -10 -49 -29 -58 -42 l-16 -23 0 37 c0 36 -1 37 -35
37 l-35 0 0 -235 0 -235 35 0 35 0 0 155 c0 109 4 165 14 188 19 46 61 71 119
71 40 0 53 -5 80 -32 l32 -32 5 -148 c3 -81 10 -155 14 -165 11 -24 38 -37 75
-37 28 0 31 3 31 29 0 23 -5 30 -22 33 -22 3 -23 7 -28 153 -6 176 -17 206
-90 243 -54 27 -101 28 -156 3z"/>
<path d="M13840 7421 c-114 -37 -174 -119 -174 -236 0 -76 15 -117 63 -168 47
-52 98 -72 181 -72 83 0 134 20 181 72 48 51 63 92 63 168 0 101 -42 173 -129
217 -43 22 -144 33 -185 19z m115 -62 c57 -16 95 -46 116 -93 35 -78 13 -180
-47 -223 -96 -69 -230 -39 -275 61 -48 107 3 223 111 254 47 14 49 14 95 1z"/>
<path d="M14684 7419 c-18 -5 -46 -22 -63 -38 l-31 -29 0 34 c0 32 -2 34 -35
34 l-35 0 0 -325 0 -325 35 0 35 0 0 124 0 124 31 -29 c98 -92 282 -48 352 85
30 58 30 164 0 222 -55 104 -177 156 -289 123z m129 -63 c50 -18 76 -42 98
-91 65 -141 -51 -290 -197 -254 -110 28 -164 150 -113 256 23 48 57 76 109 91
47 14 59 13 103 -2z"/>
<path d="M15244 7416 c-17 -8 -40 -26 -52 -41 l-22 -28 0 37 c0 35 -1 36 -35
36 l-35 0 0 -235 0 -235 35 0 35 0 0 158 c0 140 2 161 20 190 22 36 72 62 120
62 28 0 30 3 30 35 0 33 -2 35 -32 35 -18 -1 -47 -7 -64 -14z"/>
<path d="M15570 7421 c-114 -37 -174 -119 -174 -236 0 -76 15 -117 63 -168 47
-52 98 -72 181 -72 83 0 134 20 181 72 48 51 63 92 63 168 0 101 -42 173 -129
217 -43 22 -144 33 -185 19z m115 -62 c57 -16 95 -46 116 -93 35 -78 13 -180
-47 -223 -96 -69 -230 -39 -275 61 -48 107 3 223 111 254 47 14 49 14 95 1z"/>
<path d="M16350 7421 c-84 -26 -139 -86 -160 -172 -33 -138 38 -270 163 -300
85 -20 192 5 240 58 16 19 16 21 -4 38 -16 16 -23 17 -37 7 -38 -28 -99 -52
-132 -52 -58 0 -122 38 -147 90 -43 83 -49 80 167 80 l190 0 0 36 c0 151 -139
257 -280 215z m127 -71 c43 -19 83 -69 83 -102 0 -16 -14 -18 -155 -18 l-155
0 15 38 c18 42 54 75 99 90 46 15 67 14 113 -8z"/>
<path d="M18090 7421 c-84 -26 -139 -86 -160 -172 -33 -138 38 -270 163 -300
85 -20 192 5 240 58 16 19 16 21 -4 38 -16 16 -23 17 -37 7 -38 -28 -99 -52
-132 -52 -58 0 -122 38 -147 90 -43 83 -49 80 167 80 l190 0 0 36 c0 151 -139
257 -280 215z m127 -71 c43 -19 83 -69 83 -102 0 -16 -14 -18 -155 -18 l-155
0 15 38 c18 42 54 75 99 90 46 15 67 14 113 -8z"/>
<path d="M18812 7410 c-67 -30 -91 -104 -53 -165 18 -30 52 -51 163 -99 63
-27 80 -57 60 -101 -25 -55 -147 -53 -194 3 -20 24 -28 27 -51 19 -36 -12 -34
-29 8 -71 42 -42 101 -60 172 -53 97 10 151 67 140 150 -8 55 -45 90 -137 127
-84 34 -110 55 -110 87 0 55 97 78 143 35 21 -20 28 -21 51 -11 33 15 33 19
-2 52 -51 49 -120 59 -190 27z"/>
<path d="M19314 7419 c-18 -5 -46 -22 -63 -38 l-31 -29 0 34 c0 32 -2 34 -35
34 l-35 0 0 -325 0 -325 35 0 35 0 0 124 0 124 31 -29 c98 -92 282 -48 352 85
30 58 30 164 0 222 -55 104 -177 156 -289 123z m129 -63 c50 -18 76 -42 98
-91 65 -141 -51 -290 -197 -254 -110 28 -164 150 -113 256 23 48 57 76 109 91
47 14 59 13 103 -2z"/>
<path d="M19890 7421 c-114 -37 -174 -119 -174 -236 0 -76 15 -117 63 -168 47
-52 98 -72 181 -72 83 0 134 20 181 72 48 51 63 92 63 168 0 101 -42 173 -129
217 -43 22 -144 33 -185 19z m115 -62 c57 -16 95 -46 116 -93 35 -78 13 -180
-47 -223 -96 -69 -230 -39 -275 61 -48 107 3 223 111 254 47 14 49 14 95 1z"/>
<path d="M21744 7411 c-23 -10 -49 -29 -58 -42 l-16 -23 0 37 c0 36 -1 37 -35
37 l-35 0 0 -235 0 -235 35 0 35 0 0 155 c0 109 4 165 14 188 19 46 61 71 119
71 40 0 53 -5 80 -32 l32 -32 5 -148 c3 -81 10 -155 14 -165 11 -24 38 -37 75
-37 28 0 31 3 31 29 0 23 -5 30 -22 33 -22 3 -23 7 -28 153 -6 176 -17 206
-90 243 -54 27 -101 28 -156 3z"/>
<path d="M22278 7418 c-47 -12 -113 -69 -141 -122 -16 -31 -21 -58 -21 -111 0
-53 5 -80 21 -111 71 -135 252 -176 358 -82 33 28 35 29 35 9 0 -35 36 -63 78
-59 32 3 37 7 40 31 3 23 0 27 -21 27 -14 0 -28 7 -31 16 -3 9 -6 103 -6 210
l0 194 -35 0 c-32 0 -35 -2 -35 -31 l0 -31 -30 26 c-52 43 -130 56 -212 34z
m117 -59 c83 -23 135 -89 135 -174 0 -188 -254 -250 -331 -81 -24 52 -24 110
0 161 22 49 48 73 98 91 47 16 49 16 98 3z"/>
<path d="M22874 7411 c-23 -10 -49 -29 -58 -42 l-16 -23 0 37 c0 36 -1 37 -35
37 l-35 0 0 -235 0 -235 35 0 35 0 0 155 c0 109 4 165 14 188 19 46 61 71 119
71 40 0 53 -5 80 -32 l32 -32 5 -148 c3 -81 10 -155 14 -165 11 -24 38 -37 75
-37 28 0 31 3 31 29 0 23 -5 30 -22 33 -22 3 -23 7 -28 153 -6 176 -17 206
-90 243 -54 27 -101 28 -156 3z"/>
<path d="M23420 7421 c-114 -37 -174 -119 -174 -236 0 -101 42 -171 129 -218
58 -31 173 -30 233 1 51 27 61 46 37 72 -17 19 -18 19 -45 -1 -88 -65 -227
-32 -271 65 -35 78 -13 180 47 223 67 48 163 50 224 4 27 -20 28 -20 45 -1 24
26 14 45 -37 71 -46 23 -146 34 -188 20z"/>
<path d="M23920 7421 c-114 -37 -174 -119 -174 -236 0 -76 15 -117 63 -168 47
-52 98 -72 181 -72 83 0 134 20 181 72 48 51 63 92 63 168 0 101 -42 173 -129
217 -43 22 -144 33 -185 19z m115 -62 c57 -16 95 -46 116 -93 35 -78 13 -180
-47 -223 -96 -69 -230 -39 -275 61 -48 107 3 223 111 254 47 14 49 14 95 1z"/>
<path d="M24948 7418 c-47 -12 -113 -69 -141 -122 -16 -31 -21 -58 -21 -111 0
-53 5 -80 21 -111 71 -135 252 -176 358 -82 33 28 35 29 35 9 0 -35 36 -63 78
-59 32 3 37 7 40 31 3 23 0 27 -21 27 -14 0 -28 7 -31 16 -3 9 -6 103 -6 210
l0 194 -35 0 c-32 0 -35 -2 -35 -31 l0 -31 -30 26 c-52 43 -130 56 -212 34z
m117 -59 c83 -23 135 -89 135 -174 0 -188 -254 -250 -331 -81 -24 52 -24 110
0 161 22 49 48 73 98 91 47 16 49 16 98 3z"/>
<path d="M25544 7411 c-23 -10 -49 -29 -58 -42 l-16 -23 0 37 c0 36 -1 37 -35
37 l-35 0 0 -235 0 -235 35 0 35 0 0 155 c0 109 4 165 14 188 19 46 61 71 119
71 40 0 53 -5 80 -32 l32 -32 5 -148 c3 -81 10 -155 14 -165 11 -24 38 -37 75
-37 28 0 31 3 31 29 0 23 -5 30 -22 33 -22 3 -23 7 -28 153 -6 176 -17 206
-90 243 -54 27 -101 28 -156 3z"/>
<path d="M26272 7410 c-67 -30 -91 -104 -53 -165 18 -30 52 -51 163 -99 63
-27 80 -57 60 -101 -25 -55 -147 -53 -194 3 -20 24 -28 27 -51 19 -36 -12 -34
-29 8 -71 42 -42 101 -60 172 -53 97 10 151 67 140 150 -8 55 -45 90 -137 127
-84 34 -110 55 -110 87 0 55 97 78 143 35 21 -20 28 -21 51 -11 33 15 33 19
-2 52 -51 49 -120 59 -190 27z"/>
<path d="M26760 7421 c-84 -26 -139 -86 -160 -172 -33 -138 38 -270 163 -300
85 -20 192 5 240 58 16 19 16 21 -4 38 -16 16 -23 17 -37 7 -38 -28 -99 -52
-132 -52 -58 0 -122 38 -147 90 -43 83 -49 80 167 80 l190 0 0 36 c0 151 -139
257 -280 215z m127 -71 c43 -19 83 -69 83 -102 0 -16 -14 -18 -155 -18 l-155
0 15 38 c18 42 54 75 99 90 46 15 67 14 113 -8z"/>
<path d="M27412 7410 c-67 -30 -91 -104 -53 -165 18 -30 52 -51 163 -99 63
-27 80 -57 60 -101 -25 -55 -147 -53 -194 3 -20 24 -28 27 -51 19 -36 -12 -34
-29 8 -71 42 -42 101 -60 172 -53 97 10 151 67 140 150 -8 55 -45 90 -137 127
-84 34 -110 55 -110 87 0 55 97 78 143 35 21 -20 28 -21 51 -11 33 15 33 19
-2 52 -51 49 -120 59 -190 27z"/>
<path d="M28198 7418 c-47 -12 -113 -69 -141 -122 -16 -31 -21 -58 -21 -111 0
-53 5 -80 21 -111 71 -135 252 -176 358 -82 33 28 35 29 35 9 0 -35 36 -63 78
-59 32 3 37 7 40 31 3 23 0 27 -21 27 -14 0 -28 7 -31 16 -3 9 -6 103 -6 210
l0 194 -35 0 c-32 0 -35 -2 -35 -31 l0 -31 -30 26 c-52 43 -130 56 -212 34z
m117 -59 c83 -23 135 -89 135 -174 0 -188 -254 -250 -331 -81 -24 52 -24 110
0 161 22 49 48 73 98 91 47 16 49 16 98 3z"/>
<path d="M29094 7411 c-23 -10 -49 -29 -58 -42 l-16 -23 0 37 c0 36 -1 37 -35
37 l-35 0 0 -235 0 -235 35 0 35 0 0 155 c0 109 4 165 14 188 19 46 61 71 119
71 40 0 53 -5 80 -32 l32 -32 5 -148 c3 -81 10 -155 14 -165 11 -24 38 -37 75
-37 28 0 31 3 31 29 0 23 -5 30 -22 33 -22 3 -23 7 -28 153 -6 176 -17 206
-90 243 -54 27 -101 28 -156 3z"/>
<path d="M16000 7144 c0 -170 -4 -283 -10 -295 -7 -11 -26 -21 -50 -25 -36 -6
-40 -10 -40 -35 0 -26 3 -29 33 -29 48 0 100 30 119 70 16 31 18 68 18 313 l0
277 -35 0 -35 0 0 -276z"/>
<path d="M17750 7144 c0 -170 -4 -283 -10 -295 -7 -11 -26 -21 -50 -25 -36 -6
-40 -10 -40 -35 0 -26 3 -29 33 -29 48 0 100 30 119 70 16 31 18 68 18 313 l0
277 -35 0 -35 0 0 -276z"/>
<path d="M20560 7248 c0 -196 11 -236 71 -279 50 -36 150 -34 206 3 l40 27 11
-24 c12 -26 45 -39 83 -33 18 2 25 10 27 31 3 23 0 27 -21 27 -14 0 -28 7 -31
16 -3 9 -6 103 -6 210 l0 194 -35 0 -35 0 0 -162 c0 -144 -2 -167 -20 -195
-33 -54 -98 -75 -154 -48 -57 27 -66 60 -66 244 l0 161 -35 0 -35 0 0 -172z"/>
<path d="M21382 7199 c3 -220 3 -221 27 -240 17 -14 36 -19 60 -17 31 3 36 7
39 31 3 21 -1 27 -15 27 -40 0 -43 16 -43 222 l0 198 -36 0 -35 0 3 -221z"/>
<path d="M24314 7343 c173 -405 167 -393 191 -393 24 0 18 -12 191 393 l34 78
-37 -3 -36 -3 -73 -170 c-40 -93 -75 -170 -79 -170 -4 0 -39 77 -79 170 l-73
170 -36 3 -37 3 34 -78z"/>
<path d="M29492 7199 c3 -220 3 -221 27 -240 17 -14 36 -19 60 -17 31 3 36 7
39 31 3 21 -1 27 -15 27 -40 0 -43 16 -43 222 l0 198 -36 0 -35 0 3 -221z"/>
<path d="M27250 6615 c72 -73 94 -73 175 0 l60 55 -45 0 c-36 0 -50 -6 -75
-30 l-31 -30 -29 30 c-23 24 -37 30 -69 30 l-40 0 54 -55z"/>
<path d="M27240 6487 c-91 -26 -173 -97 -214 -186 -30 -66 -30 -206 1 -273 30
-66 96 -133 162 -165 48 -24 68 -28 141 -28 76 0 93 4 151 32 36 18 74 42 84
53 17 19 17 21 0 40 -24 26 -37 25 -65 -4 -47 -51 -174 -71 -259 -41 -61 21
-104 58 -137 117 -25 46 -29 63 -29 133 0 70 4 87 29 133 33 59 76 96 137 117
86 31 205 11 260 -41 26 -25 28 -25 53 -9 34 22 33 29 -6 58 -90 68 -209 92
-308 64z"/>
<path d="M13440 6366 l0 -124 -31 29 c-98 92 -282 48 -352 -85 -16 -31 -21
-58 -21 -111 0 -84 23 -135 84 -188 82 -70 213 -75 289 -12 36 31 37 31 45 0
8 -31 38 -47 79 -43 27 2 33 8 35 31 3 23 0 27 -21 27 -14 0 -28 7 -31 16 -3
9 -6 144 -6 300 l0 284 -35 0 -35 0 0 -124z m-82 -133 c78 -37 113 -152 72
-237 -82 -171 -330 -111 -330 79 0 139 130 218 258 158z"/>
<path d="M16400 6455 l0 -35 90 0 90 0 0 -290 0 -290 35 0 35 0 0 290 0 290
90 0 90 0 0 35 0 35 -215 0 -215 0 0 -35z"/>
<path d="M17900 6165 l0 -325 35 0 35 0 0 155 c0 109 4 165 14 188 19 46 61
71 119 71 40 0 53 -5 80 -32 l32 -32 5 -148 c3 -81 10 -155 14 -165 11 -24 38
-37 75 -37 28 0 31 3 31 29 0 23 -5 30 -22 33 -22 3 -23 7 -28 153 -4 126 -8
155 -25 185 -24 42 -94 80 -145 80 -45 -1 -113 -31 -134 -61 -15 -22 -16 -17
-16 104 l0 127 -35 0 -35 0 0 -325z"/>
<path d="M19540 6208 c0 -249 2 -287 18 -318 20 -41 53 -60 105 -60 35 0 37 2
37 30 0 25 -4 30 -25 30 -14 0 -34 9 -45 20 -19 19 -20 33 -20 300 l0 280 -35
0 -35 0 0 -282z"/>
<path d="M21670 6165 l0 -325 35 0 35 0 0 73 c0 66 3 76 29 107 16 19 31 33
33 30 3 -3 40 -51 83 -107 75 -99 79 -103 116 -103 22 0 39 1 39 3 0 2 -45 61
-100 132 l-99 130 22 25 c13 14 53 60 91 103 l68 77 -40 0 c-39 0 -44 -4 -141
-116 l-101 -115 0 205 0 206 -35 0 -35 0 0 -325z"/>
<path d="M22333 6473 c-3 -10 -14 -39 -24 -65 l-19 -48 29 0 c29 0 30 1 95
103 l18 27 -46 0 c-35 0 -48 -4 -53 -17z"/>
<path d="M25140 6400 c0 -89 0 -90 -25 -90 -21 0 -25 -5 -25 -30 0 -25 4 -30
24 -30 l24 0 4 -172 c3 -149 6 -177 22 -200 20 -31 75 -52 121 -46 24 2 31 8
33 29 3 24 -1 27 -40 32 -65 9 -68 19 -68 199 l0 158 55 0 c54 0 55 0 55 30 0
30 -1 30 -55 30 l-55 0 0 90 0 90 -35 0 -35 0 0 -90z"/>
<path d="M27720 6165 l0 -325 35 0 35 0 0 130 0 130 74 0 74 0 72 -130 72
-130 39 0 c21 0 39 2 39 4 0 2 -34 63 -76 137 -44 77 -71 135 -64 137 25 9 72
57 92 95 15 31 19 54 16 98 -5 74 -37 121 -102 154 -45 23 -62 25 -178 25
l-128 0 0 -325z m287 235 c65 -39 69 -145 7 -199 -34 -30 -38 -31 -129 -31
l-95 0 0 125 0 125 93 0 c74 0 98 -4 124 -20z"/>
<path d="M29755 6438 c-10 -29 -20 -59 -23 -65 -3 -9 6 -13 24 -13 24 0 35 10
67 58 20 32 37 62 37 65 0 4 -19 7 -43 7 -43 0 -43 0 -62 -52z"/>
<path d="M20956 6464 c-30 -30 -13 -74 29 -74 27 0 45 18 45 45 0 42 -44 59
-74 29z"/>
<path d="M31426 6464 c-30 -30 -13 -74 29 -74 27 0 45 18 45 45 0 42 -44 59
-74 29z"/>
<path d="M12044 6309 c-18 -5 -46 -22 -63 -38 l-31 -29 0 34 c0 32 -2 34 -35
34 l-35 0 0 -325 0 -325 35 0 35 0 0 124 0 124 31 -29 c98 -92 282 -48 352 85
30 58 30 164 0 222 -55 104 -177 156 -289 123z m129 -63 c50 -18 76 -42 98
-91 65 -141 -51 -290 -197 -254 -110 28 -164 150 -113 256 23 48 57 76 109 91
47 14 59 13 103 -2z"/>
<path d="M12620 6311 c-114 -37 -174 -119 -174 -236 0 -76 15 -117 63 -168 47
-52 98 -72 181 -72 83 0 134 20 181 72 48 51 63 92 63 168 0 101 -42 173 -129
217 -43 22 -144 33 -185 19z m115 -62 c57 -16 95 -46 116 -93 35 -78 13 -180
-47 -223 -96 -69 -230 -39 -275 61 -48 107 3 223 111 254 47 14 49 14 95 1z"/>
<path d="M13824 6309 c-18 -5 -46 -22 -63 -38 l-31 -29 0 34 c0 32 -2 34 -35
34 l-35 0 0 -325 0 -325 35 0 35 0 0 124 0 124 31 -29 c98 -92 282 -48 352 85
30 58 30 164 0 222 -55 104 -177 156 -289 123z m129 -63 c50 -18 76 -42 98
-91 65 -141 -51 -290 -197 -254 -110 28 -164 150 -113 256 23 48 57 76 109 91
47 14 59 13 103 -2z"/>
<path d="M14400 6311 c-114 -37 -174 -119 -174 -236 0 -76 15 -117 63 -168 47
-52 98 -72 181 -72 83 0 134 20 181 72 48 51 63 92 63 168 0 101 -42 173 -129
217 -43 22 -144 33 -185 19z m115 -62 c57 -16 95 -46 116 -93 35 -78 13 -180
-47 -223 -96 -69 -230 -39 -275 61 -48 107 3 223 111 254 47 14 49 14 95 1z"/>
<path d="M14964 6306 c-17 -8 -40 -26 -52 -41 l-22 -28 0 37 c0 35 -1 36 -35
36 l-35 0 0 -235 0 -235 35 0 35 0 0 158 c0 140 2 161 20 190 22 36 72 62 120
62 28 0 30 3 30 35 0 33 -2 35 -32 35 -18 -1 -47 -7 -64 -14z"/>
<path d="M15330 6311 c-114 -37 -174 -119 -174 -236 0 -76 15 -117 63 -168 47
-52 98 -72 181 -72 83 0 134 20 181 72 48 51 63 92 63 168 0 101 -42 173 -129
217 -43 22 -144 33 -185 19z m115 -62 c57 -16 95 -46 116 -93 35 -78 13 -180
-47 -223 -96 -69 -230 -39 -275 61 -48 107 3 223 111 254 47 14 49 14 95 1z"/>
<path d="M17010 6311 c-84 -26 -139 -86 -160 -172 -33 -138 38 -270 163 -300
85 -20 192 5 240 58 16 19 16 21 -4 38 -16 16 -23 17 -37 7 -38 -28 -99 -52
-132 -52 -58 0 -122 38 -147 90 -43 83 -49 80 167 80 l190 0 0 36 c0 151 -139
257 -280 215z m127 -71 c43 -19 83 -69 83 -102 0 -16 -14 -18 -155 -18 l-155
0 15 38 c18 42 54 75 99 90 46 15 67 14 113 -8z"/>
<path d="M17550 6311 c-114 -37 -174 -119 -174 -236 0 -101 42 -171 129 -218
58 -31 173 -30 233 1 51 27 61 46 37 72 -17 19 -18 19 -45 -1 -88 -65 -227
-32 -271 65 -35 78 -13 180 47 223 67 48 163 50 224 4 27 -20 28 -20 45 -1 24
26 14 45 -37 71 -46 23 -146 34 -188 20z"/>
<path d="M18574 6301 c-23 -10 -49 -29 -58 -42 l-16 -23 0 37 c0 36 -1 37 -35
37 l-35 0 0 -235 0 -235 35 0 35 0 0 155 c0 109 4 165 14 188 19 46 61 71 119
71 40 0 53 -5 80 -32 l32 -32 5 -148 c3 -81 10 -155 14 -165 11 -24 38 -37 75
-37 28 0 31 3 31 29 0 23 -5 30 -22 33 -22 3 -23 7 -28 153 -6 176 -17 206
-90 243 -54 27 -101 28 -156 3z"/>
<path d="M19120 6311 c-114 -37 -174 -119 -174 -236 0 -76 15 -117 63 -168 47
-52 98 -72 181 -72 83 0 134 20 181 72 48 51 63 92 63 168 0 101 -42 173 -129
217 -43 22 -144 33 -185 19z m115 -62 c57 -16 95 -46 116 -93 35 -78 13 -180
-47 -223 -96 -69 -230 -39 -275 61 -48 107 3 223 111 254 47 14 49 14 95 1z"/>
<path d="M19950 6311 c-114 -37 -174 -119 -174 -236 0 -76 15 -117 63 -168 47
-52 98 -72 181 -72 83 0 134 20 181 72 48 51 63 92 63 168 0 101 -42 173 -129
217 -43 22 -144 33 -185 19z m115 -62 c57 -16 95 -46 116 -93 35 -78 13 -180
-47 -223 -96 -69 -230 -39 -275 61 -48 107 3 223 111 254 47 14 49 14 95 1z"/>
<path d="M20518 6308 c-47 -12 -113 -69 -141 -122 -16 -31 -21 -58 -21 -111 0
-84 23 -135 84 -187 85 -74 216 -77 289 -9 l31 29 0 -44 c0 -91 -45 -145 -134
-158 -49 -8 -135 9 -188 35 l-36 18 -16 -24 c-15 -23 -15 -25 7 -39 50 -33
113 -49 197 -50 89 -1 127 11 178 58 54 49 57 61 60 344 l4 262 -36 0 c-34 0
-36 -2 -36 -34 l0 -34 -31 29 c-49 46 -127 60 -211 37z m160 -75 c78 -37 113
-152 72 -237 -82 -171 -330 -111 -330 79 0 139 130 218 258 158z"/>
<path d="M21320 6311 c-114 -37 -174 -119 -174 -236 0 -101 42 -171 129 -218
58 -31 173 -30 233 1 51 27 61 46 37 72 -17 19 -18 19 -45 -1 -88 -65 -227
-32 -271 65 -35 78 -13 180 47 223 67 48 163 50 224 4 27 -20 28 -20 45 -1 24
26 14 45 -37 71 -46 23 -146 34 -188 20z"/>
<path d="M22250 6311 c-84 -26 -139 -86 -160 -172 -33 -138 38 -270 163 -300
85 -20 192 5 240 58 16 19 16 21 -4 38 -16 16 -23 17 -37 7 -38 -28 -99 -52
-132 -52 -58 0 -122 38 -147 90 -43 83 -49 80 167 80 l190 0 0 36 c0 151 -139
257 -280 215z m127 -71 c43 -19 83 -69 83 -102 0 -16 -14 -18 -155 -18 l-155
0 15 38 c18 42 54 75 99 90 46 15 67 14 113 -8z"/>
<path d="M23038 6308 c-47 -12 -113 -69 -141 -122 -16 -31 -21 -58 -21 -111 0
-53 5 -80 21 -111 71 -135 252 -176 358 -82 33 28 35 29 35 9 0 -35 36 -63 78
-59 32 3 37 7 40 31 3 23 0 27 -21 27 -14 0 -28 7 -31 16 -3 9 -6 103 -6 210
l0 194 -35 0 c-32 0 -35 -2 -35 -31 l0 -31 -30 26 c-52 43 -130 56 -212 34z
m117 -59 c83 -23 135 -89 135 -174 0 -188 -254 -250 -331 -81 -24 52 -24 110
0 161 22 49 48 73 98 91 47 16 49 16 98 3z"/>
<path d="M23628 6308 c-47 -12 -113 -69 -141 -122 -16 -31 -21 -58 -21 -111 0
-84 23 -135 84 -187 85 -74 216 -77 289 -9 l31 29 0 -44 c0 -91 -45 -145 -134
-158 -49 -8 -135 9 -188 35 l-36 18 -16 -24 c-15 -23 -15 -25 7 -39 50 -33
113 -49 197 -50 89 -1 127 11 178 58 54 49 57 61 60 344 l4 262 -36 0 c-34 0
-36 -2 -36 -34 l0 -34 -31 29 c-49 46 -127 60 -211 37z m160 -75 c78 -37 113
-152 72 -237 -82 -171 -330 -111 -330 79 0 139 130 218 258 158z"/>
<path d="M24210 6311 c-84 -26 -139 -86 -160 -172 -33 -138 38 -270 163 -300
85 -20 192 5 240 58 16 19 16 21 -4 38 -16 16 -23 17 -37 7 -38 -28 -99 -52
-132 -52 -58 0 -122 38 -147 90 -43 83 -49 80 167 80 l190 0 0 36 c0 151 -139
257 -280 215z m127 -71 c43 -19 83 -69 83 -102 0 -16 -14 -18 -155 -18 l-155
0 15 38 c18 42 54 75 99 90 46 15 67 14 113 -8z"/>
<path d="M24734 6301 c-23 -10 -49 -29 -58 -42 l-16 -23 0 37 c0 36 -1 37 -35
37 l-35 0 0 -235 0 -235 35 0 35 0 0 155 c0 109 4 165 14 188 19 46 61 71 119
71 40 0 53 -5 80 -32 l32 -32 5 -148 c3 -81 10 -155 14 -165 11 -24 38 -37 75
-37 28 0 31 3 31 29 0 23 -5 30 -22 33 -22 3 -23 7 -28 153 -6 176 -17 206
-90 243 -54 27 -101 28 -156 3z"/>
<path d="M26094 6306 c-17 -8 -40 -26 -52 -41 l-22 -28 0 37 c0 35 -1 36 -35
36 l-35 0 0 -235 0 -235 35 0 35 0 0 158 c0 140 2 161 20 190 22 36 72 62 120
62 28 0 30 3 30 35 0 33 -2 35 -32 35 -18 -1 -47 -7 -64 -14z"/>
<path d="M29354 6306 c-17 -8 -40 -26 -52 -41 l-22 -28 0 37 c0 35 -1 36 -35
36 l-35 0 0 -235 0 -235 35 0 35 0 0 158 c0 140 2 161 20 190 22 36 72 62 120
62 28 0 30 3 30 35 0 33 -2 35 -32 35 -18 -1 -47 -7 -64 -14z"/>
<path d="M29678 6308 c-47 -12 -113 -69 -141 -122 -16 -31 -21 -58 -21 -111 0
-53 5 -80 21 -111 71 -135 252 -176 358 -82 33 28 35 29 35 9 0 -35 36 -63 78
-59 32 3 37 7 40 31 3 23 0 27 -21 27 -14 0 -28 7 -31 16 -3 9 -6 103 -6 210
l0 194 -35 0 c-32 0 -35 -2 -35 -31 l0 -31 -30 26 c-52 43 -130 56 -212 34z
m117 -59 c83 -23 135 -89 135 -174 0 -188 -254 -250 -331 -81 -24 52 -24 110
0 161 22 49 48 73 98 91 47 16 49 16 98 3z"/>
<path d="M30284 6306 c-17 -8 -40 -26 -52 -41 l-22 -28 0 37 c0 35 -1 36 -35
36 l-35 0 0 -235 0 -235 35 0 35 0 0 164 c0 153 1 165 23 197 12 18 38 39 58
47 31 12 41 11 73 -2 57 -24 66 -57 66 -246 l0 -160 34 0 35 0 3 174 3 175 29
30 c52 54 119 50 156 -11 17 -29 20 -51 20 -166 0 -172 13 -202 91 -202 25 0
29 4 29 29 0 23 -5 30 -22 33 -22 3 -23 7 -28 158 -6 175 -15 202 -80 239 -65
37 -142 22 -192 -37 l-25 -30 -23 30 c-39 53 -113 71 -176 44z"/>
<path d="M31070 6311 c-114 -37 -174 -119 -174 -236 0 -101 42 -171 129 -218
58 -31 173 -30 233 1 51 27 61 46 37 72 -17 19 -18 19 -45 -1 -88 -65 -227
-32 -271 65 -35 78 -13 180 47 223 67 48 163 50 224 4 27 -20 28 -20 45 -1 24
26 14 45 -37 71 -46 23 -146 34 -188 20z"/>
<path d="M15760 6138 c0 -196 11 -236 71 -279 50 -36 150 -34 206 3 l40 27 11
-24 c12 -26 45 -39 83 -33 18 2 25 10 27 31 3 23 0 27 -21 27 -14 0 -28 7 -31
16 -3 9 -6 103 -6 210 l0 194 -35 0 -35 0 0 -162 c0 -144 -2 -167 -20 -195
-33 -54 -98 -75 -154 -48 -57 27 -66 60 -66 244 l0 161 -35 0 -35 0 0 -172z"/>
<path d="M20952 6089 c3 -220 3 -221 27 -240 17 -14 36 -19 60 -17 31 3 36 7
39 31 3 21 -1 27 -15 27 -40 0 -43 16 -43 222 l0 198 -36 0 -35 0 3 -221z"/>
<path d="M25420 6138 c0 -196 11 -236 71 -279 50 -36 150 -34 206 3 l40 27 11
-24 c12 -26 45 -39 83 -33 18 2 25 10 27 31 3 23 0 27 -21 27 -14 0 -28 7 -31
16 -3 9 -6 103 -6 210 l0 194 -35 0 -35 0 0 -162 c0 -144 -2 -167 -20 -195
-33 -54 -98 -75 -154 -48 -57 27 -66 60 -66 244 l0 161 -35 0 -35 0 0 -172z"/>
<path d="M26289 6263 c10 -27 53 -134 95 -239 l77 -191 -20 -46 c-23 -54 -60
-82 -96 -73 -23 6 -25 4 -25 -30 l0 -37 50 5 c56 6 83 25 111 80 14 28 137
338 220 556 8 20 6 22 -25 22 -33 0 -35 -2 -62 -72 -15 -40 -48 -129 -74 -197
l-47 -124 -78 197 -77 196 -34 0 -34 0 19 -47z"/>
<path d="M28474 6233 c173 -405 167 -393 191 -393 24 0 18 -12 191 393 l34 78
-37 -3 -36 -3 -73 -170 c-40 -93 -75 -170 -79 -170 -4 0 -39 77 -79 170 l-73
170 -36 3 -37 3 34 -78z"/>
<path d="M31422 6089 c3 -220 3 -221 27 -240 17 -14 36 -19 60 -17 31 3 36 7
39 31 3 21 -1 27 -15 27 -40 0 -43 16 -43 222 l0 198 -36 0 -35 0 3 -221z"/>
<path d="M16555 5367 c-56 -22 -73 -37 -94 -80 -27 -55 -27 -103 0 -147 28
-45 38 -53 139 -104 117 -59 128 -66 146 -104 20 -43 12 -91 -21 -122 -38 -36
-129 -40 -184 -9 -23 12 -41 25 -41 28 -1 3 -11 19 -24 35 -21 25 -26 27 -47
16 -33 -17 -32 -16 -19 -42 70 -135 272 -172 372 -67 59 62 62 163 8 232 -11
14 -69 51 -129 81 -142 73 -169 106 -139 171 32 70 172 73 208 5 10 -19 13
-19 40 -5 17 9 30 19 30 23 0 18 -79 83 -111 92 -44 13 -96 12 -134 -3z"/>
<path d="M17457 5370 c-85 -22 -172 -92 -215 -175 -24 -44 -27 -62 -27 -145 0
-76 4 -104 22 -142 30 -66 96 -133 162 -165 48 -24 68 -28 141 -28 91 0 149
19 217 71 l33 25 0 135 0 134 -135 0 -135 0 0 -35 0 -35 100 0 100 0 0 -84 c0
-81 -1 -85 -27 -104 -46 -32 -101 -45 -172 -40 -74 6 -114 23 -160 69 -123
122 -99 341 45 425 82 48 212 44 287 -9 l29 -20 21 21 c20 20 20 22 3 41 -47
51 -198 83 -289 61z"/>
<path d="M11920 5045 l0 -325 35 0 35 0 0 125 0 125 73 0 c88 0 141 14 186 47
85 65 94 209 18 292 -44 48 -92 61 -224 61 l-123 0 0 -325z m286 222 c65 -59
56 -162 -19 -207 -25 -16 -50 -20 -114 -20 l-83 0 0 130 0 130 90 0 c88 0 91
-1 126 -33z"/>
<path d="M16980 5045 l0 -325 35 0 35 0 0 325 0 325 -35 0 -35 0 0 -325z"/>
<path d="M17970 5045 l0 -325 35 0 35 0 2 249 3 249 114 -189 c63 -104 118
-189 122 -189 3 0 58 86 120 190 l114 191 3 -251 2 -250 35 0 35 0 0 325 0
325 -32 0 c-32 0 -36 -6 -153 -204 -66 -112 -123 -202 -126 -200 -4 2 -60 94
-125 204 -116 195 -120 200 -151 200 l-33 0 0 -325z"/>
<path d="M18996 5338 c-131 -311 -256 -609 -256 -613 0 -3 17 -5 38 -5 37 0
37 0 68 78 l32 77 159 3 159 2 33 -80 32 -80 39 0 39 0 -43 103 c-24 56 -85
202 -137 325 -90 214 -94 222 -121 222 -22 0 -31 -7 -42 -32z m109 -241 c32
-76 55 -140 52 -143 -2 -2 -59 -3 -125 -2 l-120 3 61 148 c33 81 64 144 68
140 4 -5 33 -70 64 -146z"/>
<path d="M12584 5186 c-17 -8 -40 -26 -52 -41 l-22 -28 0 37 c0 35 -1 36 -35
36 l-35 0 0 -235 0 -235 35 0 35 0 0 158 c0 140 2 161 20 190 22 36 72 62 120
62 28 0 30 3 30 35 0 33 -2 35 -32 35 -18 -1 -47 -7 -64 -14z"/>
<path d="M12920 5191 c-114 -37 -174 -119 -174 -236 0 -76 15 -117 63 -168 47
-52 98 -72 181 -72 83 0 134 20 181 72 48 51 63 92 63 168 0 101 -42 173 -129
217 -43 22 -144 33 -185 19z m115 -62 c57 -16 95 -46 116 -93 35 -78 13 -180
-47 -223 -96 -69 -230 -39 -275 61 -48 107 3 223 111 254 47 14 49 14 95 1z"/>
<path d="M13488 5188 c-47 -12 -113 -69 -141 -122 -16 -31 -21 -58 -21 -111 0
-84 23 -135 84 -187 85 -74 216 -77 289 -9 l31 29 0 -44 c0 -91 -45 -145 -134
-158 -49 -8 -135 9 -188 35 l-36 18 -16 -24 c-15 -23 -15 -25 7 -39 50 -33
113 -49 197 -50 89 -1 127 11 178 58 54 49 57 61 60 344 l4 262 -36 0 c-34 0
-36 -2 -36 -34 l0 -34 -31 29 c-49 46 -127 60 -211 37z m160 -75 c78 -37 113
-152 72 -237 -82 -171 -330 -111 -330 79 0 139 130 218 258 158z"/>
<path d="M14064 5186 c-17 -8 -40 -26 -52 -41 l-22 -28 0 37 c0 35 -1 36 -35
36 l-35 0 0 -235 0 -235 35 0 35 0 0 158 c0 140 2 161 20 190 22 36 72 62 120
62 28 0 30 3 30 35 0 33 -2 35 -32 35 -18 -1 -47 -7 -64 -14z"/>
<path d="M14388 5188 c-47 -12 -113 -69 -141 -122 -16 -31 -21 -58 -21 -111 0
-53 5 -80 21 -111 71 -135 252 -176 358 -82 33 28 35 29 35 9 0 -35 36 -63 78
-59 32 3 37 7 40 31 3 23 0 27 -21 27 -14 0 -28 7 -31 16 -3 9 -6 103 -6 210
l0 194 -35 0 c-32 0 -35 -2 -35 -31 l0 -31 -30 26 c-52 43 -130 56 -212 34z
m117 -59 c83 -23 135 -89 135 -174 0 -188 -254 -250 -331 -81 -24 52 -24 110
0 161 22 49 48 73 98 91 47 16 49 16 98 3z"/>
<path d="M14994 5186 c-17 -8 -40 -26 -52 -41 l-22 -28 0 37 c0 35 -1 36 -35
36 l-35 0 0 -235 0 -235 35 0 35 0 0 164 c0 153 1 165 23 197 12 18 38 39 58
47 31 12 41 11 73 -2 57 -24 66 -57 66 -246 l0 -160 34 0 35 0 3 174 3 175 29
30 c52 54 119 50 156 -11 17 -29 20 -51 20 -166 0 -172 13 -202 91 -202 25 0
29 4 29 29 0 23 -5 30 -22 33 -22 3 -23 7 -28 158 -6 175 -15 202 -80 239 -65
37 -142 22 -192 -37 l-25 -30 -23 30 c-39 53 -113 71 -176 44z"/>
<path d="M15630 5018 c0 -196 11 -236 71 -279 50 -36 150 -34 206 3 l40 27 11
-24 c12 -26 45 -39 83 -33 18 2 25 10 27 31 3 23 0 27 -21 27 -14 0 -28 7 -31
16 -3 9 -6 103 -6 210 l0 194 -35 0 -35 0 0 -162 c0 -144 -2 -167 -20 -195
-33 -54 -98 -75 -154 -48 -57 27 -66 60 -66 244 l0 161 -35 0 -35 0 0 -172z"/>
<path d="M19440 4785 c-31 -38 27 -96 65 -65 18 15 20 51 3 68 -17 17 -53 15
-68 -3z"/>
<path d="M3672 3880 l133 -139 135 0 135 0 133 139 134 140 -143 0 -143 0 -58
-57 -58 -57 -58 57 -58 57 -143 0 -143 0 134 -140z"/>
<path d="M20210 3560 c0 -79 0 -80 -25 -80 -23 0 -25 -4 -25 -45 0 -41 2 -45
25 -45 l25 0 0 -125 c0 -123 0 -125 28 -156 24 -27 37 -33 85 -37 l57 -4 0 46
c0 44 -1 46 -28 46 -46 0 -52 15 -52 127 l0 103 45 0 45 0 0 45 0 45 -45 0
-45 0 0 80 0 80 -45 0 -45 0 0 -80z"/>
<path d="M3819 3620 c-283 -45 -525 -269 -574 -533 -46 -245 16 -457 181 -623
67 -67 99 -91 175 -128 126 -62 198 -79 339 -79 136 -1 209 16 325 72 76 38
199 134 193 152 -2 4 -46 44 -98 88 l-94 79 -37 -29 c-173 -137 -427 -127
-579 23 -194 191 -152 525 84 663 140 82 347 68 480 -33 l51 -39 95 80 c52 44
96 83 98 87 1 4 -22 30 -52 57 -63 58 -185 124 -271 147 -73 20 -240 28 -316
16z"/>
<path d="M7460 2920 l0 -670 145 0 145 0 2 223 3 222 88 3 c55 2 94 -1 102 -8
8 -6 74 -108 147 -226 l133 -214 169 0 168 0 -14 23 c-78 120 -308 487 -308
491 0 2 20 16 43 29 60 36 114 98 149 174 55 118 48 286 -18 398 -35 60 -132
148 -197 179 -82 38 -157 46 -469 46 l-288 0 0 -670z m620 378 c53 -27 78 -60
91 -117 18 -82 -23 -169 -95 -202 -34 -15 -66 -19 -183 -19 l-143 0 0 180 0
180 143 0 c128 0 147 -2 187 -22z"/>
<path d="M20542 3465 c-73 -38 -107 -96 -107 -185 0 -89 34 -148 107 -184 29
-14 69 -26 90 -26 42 0 102 22 129 46 15 13 17 13 22 -5 6 -25 49 -43 91 -39
28 3 31 7 34 39 3 32 0 37 -22 43 l-26 6 0 160 0 160 -50 0 c-44 0 -50 -3 -50
-20 0 -21 0 -21 -28 0 -17 13 -50 23 -83 26 -45 5 -63 1 -107 -21z m168 -80
c35 -18 60 -62 60 -105 0 -101 -122 -159 -199 -94 -114 96 6 268 139 199z"/>
<path d="M21069 3463 c-131 -67 -158 -225 -56 -327 82 -82 205 -87 302 -13 20
15 20 16 -9 46 l-29 31 -32 -20 c-48 -29 -115 -27 -154 6 -88 74 -38 214 76
214 28 0 58 -8 78 -20 l32 -20 29 31 c29 30 29 31 9 46 -76 58 -163 67 -246
26z"/>
<path d="M21560 3479 c-14 -6 -35 -20 -47 -31 l-23 -21 0 26 c0 25 -3 27 -45
27 l-45 0 0 -200 0 -200 45 0 45 0 0 113 c0 157 28 206 118 207 31 0 32 1 32
45 0 43 -1 45 -27 44 -16 0 -39 -5 -53 -10z"/>
<path d="M21899 3463 c-131 -67 -158 -225 -56 -327 82 -82 205 -87 302 -13 20
15 20 16 -9 46 l-29 31 -32 -20 c-48 -29 -115 -27 -154 6 -88 74 -38 214 76
214 28 0 58 -8 78 -20 l32 -20 29 31 c29 30 29 31 9 46 -76 58 -163 67 -246
26z"/>
<path d="M18210 3472 c0 -4 28 -93 63 -197 l64 -190 39 -3 40 -3 41 128 40
127 42 -127 43 -127 36 0 37 0 67 201 67 200 -46 -3 -46 -3 -38 -114 c-21 -63
-41 -116 -43 -118 -2 -3 -22 49 -43 116 l-38 121 -37 0 -36 0 -37 -112 c-21
-62 -41 -116 -44 -120 -4 -5 -25 46 -46 112 l-39 120 -43 0 c-24 0 -43 -3 -43
-8z"/>
<path d="M18830 3472 c0 -4 28 -93 63 -197 l64 -190 39 -3 40 -3 41 128 40
127 42 -127 43 -127 36 0 37 0 67 201 67 200 -46 -3 -46 -3 -38 -114 c-21 -63
-41 -116 -43 -118 -2 -3 -22 49 -43 116 l-38 121 -37 0 -36 0 -37 -112 c-21
-62 -41 -116 -44 -120 -4 -5 -25 46 -46 112 l-39 120 -43 0 c-24 0 -43 -3 -43
-8z"/>
<path d="M19440 3472 c0 -4 28 -93 63 -197 l64 -190 39 -3 40 -3 41 128 40
127 42 -127 43 -127 36 0 37 0 67 201 67 200 -46 -3 -46 -3 -38 -114 c-21 -63
-41 -116 -43 -118 -2 -3 -22 49 -43 116 l-38 121 -37 0 -36 0 -37 -112 c-21
-62 -41 -116 -44 -120 -4 -5 -25 46 -46 112 l-39 120 -43 0 c-24 0 -43 -3 -43
-8z"/>
<path d="M22240 3440 l0 -40 95 0 c52 0 95 -3 95 -8 0 -4 -49 -63 -110 -130
-87 -98 -110 -129 -110 -153 l0 -29 185 0 185 0 0 40 0 40 -111 0 c-64 0 -109
4 -107 9 2 5 49 62 106 126 87 99 102 121 102 150 l0 35 -165 0 -165 0 0 -40z"/>
<path d="M20022 3164 c-12 -8 -22 -26 -22 -39 0 -25 33 -55 61 -55 21 0 49 32
49 57 0 23 -29 53 -51 53 -8 0 -25 -7 -37 -16z"/>
<path d="M21652 3164 c-12 -8 -22 -26 -22 -39 0 -25 33 -55 61 -55 21 0 49 32
49 57 0 23 -29 53 -51 53 -8 0 -25 -7 -37 -16z"/>
<path d="M18847 2472 c-32 -35 -15 -82 28 -82 25 0 55 29 55 53 0 21 -27 47
-49 47 -10 0 -25 -8 -34 -18z"/>
<path d="M15152 2468 c3 -7 27 -118 53 -245 l49 -233 36 0 36 0 139 223 c76
122 145 232 153 245 14 22 14 22 -34 22 l-49 0 -110 -180 c-100 -162 -111
-177 -117 -152 -4 14 -22 95 -39 179 l-32 153 -45 0 c-31 0 -43 -4 -40 -12z"/>
<path d="M15776 2434 c-14 -26 -26 -48 -26 -50 0 -2 15 -4 33 -4 26 1 40 11
75 50 l44 50 -50 0 c-49 0 -51 -1 -76 -46z"/>
<path d="M16445 2468 c-6 -17 -95 -455 -95 -468 0 -5 18 -10 39 -10 l40 0 11
53 c7 35 19 58 35 70 27 20 22 25 79 -75 26 -46 29 -48 72 -48 l45 0 -37 68
c-21 37 -46 80 -56 97 l-18 30 82 82 83 83 -51 0 c-47 0 -53 -3 -99 -51 -28
-28 -62 -59 -76 -69 l-25 -19 21 102 c40 188 40 167 -6 167 -23 0 -42 -5 -44
-12z"/>
<path d="M18522 2440 c46 -55 91 -55 168 0 l55 40 -43 0 c-28 0 -53 -7 -72
-22 l-30 -22 -23 22 c-14 13 -36 22 -56 22 l-32 0 33 -40z"/>
<path d="M19030 2415 c-11 -57 -15 -65 -35 -65 -17 0 -24 -7 -29 -31 -9 -46
-8 -49 14 -49 11 0 20 -2 20 -4 0 -2 -9 -47 -20 -101 -11 -53 -17 -108 -14
-121 9 -36 51 -64 94 -64 40 0 50 11 50 56 0 19 -5 24 -25 24 -14 0 -28 7 -31
15 -4 9 1 56 11 105 l17 90 40 0 c39 0 41 2 52 53 6 26 5 27 -34 27 -22 0 -40
3 -40 8 1 4 7 33 14 65 l14 57 -43 0 -43 0 -12 -65z"/>
<path d="M19745 2440 c31 -32 46 -40 75 -40 27 0 51 11 90 40 l54 40 -46 0
c-32 0 -50 -6 -63 -20 -10 -11 -24 -20 -31 -20 -8 0 -19 9 -26 20 -9 15 -24
20 -52 20 l-40 0 39 -40z"/>
<path d="M20586 2434 c-14 -26 -26 -48 -26 -50 0 -2 15 -4 33 -4 26 1 40 11
75 50 l44 50 -50 0 c-49 0 -51 -1 -76 -46z"/>
<path d="M23571 2271 c-44 -223 -44 -243 1 -275 27 -19 87 -21 92 -3 18 57 17
67 -9 67 -14 0 -28 6 -31 14 -3 8 12 102 34 210 l39 196 -42 0 -42 0 -42 -209z"/>
<path d="M24295 2440 c31 -32 46 -40 75 -40 27 0 51 11 90 40 l54 40 -46 0
c-32 0 -50 -6 -63 -20 -10 -11 -24 -20 -31 -20 -8 0 -19 9 -26 20 -9 15 -24
20 -52 20 l-40 0 39 -40z"/>
<path d="M25800 2415 c-11 -57 -15 -65 -35 -65 -17 0 -24 -7 -29 -31 -9 -46
-8 -49 14 -49 11 0 20 -2 20 -4 0 -2 -9 -47 -20 -101 -11 -53 -17 -108 -14
-121 9 -36 51 -64 94 -64 40 0 50 11 50 56 0 19 -5 24 -25 24 -14 0 -28 7 -31
15 -4 9 1 56 11 105 l17 90 40 0 c39 0 41 2 52 53 6 26 5 27 -34 27 -22 0 -40
3 -40 8 1 4 7 33 14 65 l14 57 -43 0 -43 0 -12 -65z"/>
<path d="M17340 2353 c-8 -3 -23 -12 -32 -21 -16 -14 -18 -13 -18 1 0 13 -9
17 -40 17 -33 0 -41 -4 -45 -22 -10 -43 -65 -321 -65 -330 0 -4 18 -8 39 -8
45 0 43 -5 67 125 9 50 22 104 29 121 23 55 107 64 120 12 3 -13 -5 -76 -18
-140 l-24 -118 42 0 42 0 26 126 c14 69 31 132 38 141 23 27 59 35 85 18 29
-18 29 -32 7 -146 l-17 -89 24 -25 c34 -36 81 -32 91 9 6 22 4 32 -8 41 -15
12 -15 18 0 89 23 103 22 129 -8 164 -43 52 -118 54 -175 5 -17 -14 -30 -20
-30 -14 0 6 -15 20 -32 31 -32 19 -68 24 -98 13z"/>
<path d="M19316 2346 c-80 -30 -136 -110 -136 -197 0 -108 58 -164 170 -164
46 0 76 6 104 21 47 24 51 32 28 62 l-17 22 -40 -21 c-53 -27 -111 -21 -142
16 -13 14 -23 35 -23 45 0 18 10 20 143 22 l142 3 0 52 c-1 113 -114 181 -229
139z m107 -67 c21 -9 47 -46 47 -64 0 -3 -46 -5 -101 -5 l-101 0 14 23 c16 24
73 57 100 57 9 0 28 -5 41 -11z"/>
<path d="M19715 2336 c-27 -13 -58 -32 -67 -42 -27 -31 -58 -106 -58 -143 0
-49 36 -117 74 -141 65 -40 168 -36 226 10 l25 19 -26 27 c-26 25 -28 26 -50
10 -30 -20 -93 -21 -124 0 -13 9 -29 31 -35 49 -9 29 -8 42 8 79 32 72 111 98
178 57 30 -18 30 -18 59 5 25 20 27 24 14 40 -22 26 -89 54 -134 54 -22 0 -62
-11 -90 -24z"/>
<path d="M20153 2341 c-27 -17 -33 -18 -33 -6 0 11 -11 15 -40 15 -33 0 -41
-4 -45 -22 -10 -43 -65 -321 -65 -330 0 -4 18 -8 39 -8 44 0 39 -11 71 157 21
104 60 148 123 136 46 -9 52 -34 32 -145 l-18 -98 23 -26 c34 -35 81 -30 91
10 6 22 4 32 -8 41 -15 11 -15 19 2 98 21 100 15 139 -26 170 -40 29 -107 33
-146 8z"/>
<path d="M21127 2341 c-29 -15 -37 -16 -33 -5 4 11 -4 14 -37 14 l-43 0 -47
-242 c-26 -134 -48 -246 -47 -250 0 -5 17 -8 39 -8 l39 0 17 89 17 90 28 -21
c68 -50 182 -29 245 45 57 66 69 140 36 213 -37 82 -136 116 -214 75z m105
-72 c57 -30 55 -134 -3 -183 -33 -28 -93 -35 -131 -15 -57 30 -55 134 3 183
33 28 93 35 131 15z"/>
<path d="M21565 2334 c-36 -24 -37 -24 -32 -5 5 19 1 21 -38 21 l-42 0 -32
-162 c-18 -90 -34 -171 -37 -180 -5 -15 1 -18 38 -18 l44 0 18 98 c27 143 53
181 128 191 35 5 43 10 49 35 5 16 6 33 3 38 -10 16 -62 7 -99 -18z"/>
<path d="M21819 2346 c-59 -21 -96 -53 -123 -108 -31 -61 -33 -108 -7 -164 47
-104 206 -124 301 -38 50 45 70 90 70 157 0 121 -119 197 -241 153z m133 -96
c28 -28 30 -36 25 -78 -7 -63 -58 -112 -117 -112 -94 0 -135 86 -82 168 21 32
60 51 105 52 30 0 45 -7 69 -30z"/>
<path d="M22404 2346 c-40 -18 -74 -62 -74 -96 0 -40 34 -77 101 -111 64 -32
72 -50 34 -75 -31 -20 -84 -12 -110 16 -22 25 -33 25 -64 1 l-25 -19 30 -30
c65 -64 180 -68 241 -7 63 63 38 132 -68 186 -61 30 -73 51 -40 69 30 15 56
12 86 -11 l27 -22 25 26 c31 30 25 43 -31 68 -48 22 -89 23 -132 5z"/>
<path d="M22797 2341 c-29 -15 -37 -16 -33 -5 4 11 -4 14 -37 14 l-43 0 -47
-242 c-26 -134 -48 -246 -47 -250 0 -5 17 -8 39 -8 l39 0 17 89 17 90 28 -21
c68 -50 182 -29 245 45 57 66 69 140 36 213 -37 82 -136 116 -214 75z m105
-72 c57 -30 55 -134 -3 -183 -33 -28 -93 -35 -131 -15 -57 30 -55 134 3 183
33 28 93 35 131 15z"/>
<path d="M23229 2346 c-59 -21 -96 -53 -123 -108 -31 -61 -33 -108 -7 -164 47
-104 206 -124 301 -38 50 45 70 90 70 157 0 121 -119 197 -241 153z m133 -96
c28 -28 30 -36 25 -78 -7 -63 -58 -112 -117 -112 -94 0 -135 86 -82 168 21 32
60 51 105 52 30 0 45 -7 69 -30z"/>
<path d="M23866 2346 c-80 -30 -136 -110 -136 -197 0 -108 58 -164 170 -164
46 0 76 6 104 21 47 24 51 32 28 62 l-17 22 -40 -21 c-53 -27 -111 -21 -142
16 -13 14 -23 35 -23 45 0 18 10 20 143 22 l142 3 0 52 c-1 113 -114 181 -229
139z m107 -67 c21 -9 47 -46 47 -64 0 -3 -46 -5 -101 -5 l-101 0 14 23 c16 24
73 57 100 57 9 0 28 -5 41 -11z"/>
<path d="M24265 2336 c-27 -13 -58 -32 -67 -42 -27 -31 -58 -106 -58 -143 0
-49 36 -117 74 -141 65 -40 168 -36 226 10 l25 19 -26 27 c-26 25 -28 26 -50
10 -30 -20 -93 -21 -124 0 -13 9 -29 31 -35 49 -9 29 -8 42 8 79 32 72 111 98
178 57 30 -18 30 -18 59 5 25 20 27 24 14 40 -22 26 -89 54 -134 54 -22 0 -62
-11 -90 -24z"/>
<path d="M24693 2341 c-27 -17 -33 -18 -33 -6 0 11 -11 15 -40 15 -33 0 -41
-4 -45 -22 -10 -43 -65 -321 -65 -330 0 -4 18 -8 39 -8 44 0 39 -11 71 157 21
104 60 148 123 136 46 -9 52 -34 32 -145 l-18 -98 23 -26 c34 -35 81 -30 91
10 6 22 4 32 -8 41 -15 11 -15 19 2 98 21 100 15 139 -26 170 -40 29 -107 33
-146 8z"/>
<path d="M25089 2346 c-59 -21 -96 -53 -123 -108 -31 -61 -33 -108 -7 -164 47
-104 206 -124 301 -38 50 45 70 90 70 157 0 121 -119 197 -241 153z m133 -96
c28 -28 30 -36 25 -78 -7 -63 -58 -112 -117 -112 -94 0 -135 86 -82 168 21 32
60 51 105 52 30 0 45 -7 69 -30z"/>
<path d="M25484 2346 c-40 -18 -74 -62 -74 -96 0 -40 34 -77 101 -111 64 -32
72 -50 34 -75 -31 -20 -84 -12 -110 16 -22 25 -33 25 -64 1 l-25 -19 30 -30
c65 -64 180 -68 241 -7 63 63 38 132 -68 186 -61 30 -73 51 -40 69 30 15 56
12 86 -11 l27 -22 25 26 c31 30 25 43 -31 68 -48 22 -89 23 -132 5z"/>
<path d="M15603 2333 c24 -84 68 -336 63 -357 -11 -43 -43 -69 -77 -62 -26 5
-29 3 -29 -18 0 -14 -3 -31 -6 -40 -5 -13 2 -16 38 -16 79 0 99 22 245 270 73
124 132 228 133 233 0 4 -19 7 -42 7 l-43 0 -68 -120 c-37 -66 -72 -122 -76
-125 -5 -2 -19 50 -32 118 l-25 122 -43 3 c-37 3 -42 1 -38 -15z"/>
<path d="M16020 2331 c0 -11 -3 -26 -6 -35 -5 -14 6 -16 80 -16 47 0 86 -4 86
-9 0 -5 -17 -24 -37 -41 -103 -90 -201 -191 -207 -214 l-6 -26 164 0 c161 0
164 0 170 23 12 46 11 47 -89 47 -97 0 -112 7 -74 34 57 39 211 202 216 228
l6 28 -152 0 c-142 0 -151 -1 -151 -19z"/>
<path d="M16767 2283 c-40 -177 -41 -189 -21 -230 25 -51 74 -75 137 -70 31 3
56 12 71 26 l23 21 18 -20 c10 -11 31 -20 46 -20 24 0 30 6 37 33 7 27 5 33
-10 39 -10 4 -18 9 -18 11 0 2 11 59 25 127 14 68 25 129 25 136 0 10 -13 14
-39 14 -44 0 -39 11 -72 -158 -20 -105 -72 -156 -135 -132 -35 14 -38 47 -15
161 28 134 28 129 -18 129 l-39 0 -15 -67z"/>
<path d="M17997 2283 c-40 -177 -41 -189 -21 -230 25 -51 74 -75 137 -70 31 3
56 12 71 26 l23 21 18 -20 c10 -11 31 -20 46 -20 24 0 30 6 37 33 7 27 5 33
-10 39 -10 4 -18 9 -18 11 0 2 11 59 25 127 14 68 25 129 25 136 0 10 -13 14
-39 14 -44 0 -39 11 -72 -158 -20 -105 -72 -156 -135 -132 -35 14 -38 47 -15
161 28 134 28 129 -18 129 l-39 0 -15 -67z"/>
<path d="M18430 2331 c0 -11 -3 -26 -6 -35 -5 -14 6 -16 80 -16 47 0 86 -4 86
-9 0 -5 -12 -19 -27 -31 -69 -54 -211 -201 -217 -224 l-6 -26 164 0 c161 0
164 0 170 23 12 46 11 47 -89 47 -52 0 -95 2 -95 6 0 3 54 58 120 122 84 82
120 124 120 140 0 22 -1 22 -150 22 -141 0 -150 -1 -150 -19z"/>
<path d="M18818 2338 c-3 -7 -18 -79 -34 -160 l-28 -147 24 -26 c16 -17 34
-25 56 -25 28 0 33 4 39 31 5 23 3 34 -11 43 -17 13 -16 20 9 147 15 74 27
137 27 142 0 12 -78 8 -82 -5z"/>
<path d="M20413 2333 c24 -84 68 -336 63 -357 -11 -43 -43 -69 -77 -62 -26 5
-29 3 -29 -18 0 -14 -3 -31 -6 -40 -5 -13 2 -16 38 -16 79 0 99 22 245 270 73
124 132 228 133 233 0 4 -19 7 -42 7 l-43 0 -68 -120 c-37 -66 -72 -122 -76
-125 -5 -2 -19 50 -32 118 l-25 122 -43 3 c-37 3 -42 1 -38 -15z"/>
<path d="M25960 2060 c-35 -35 -20 -80 25 -80 25 0 55 29 55 53 0 19 -27 47
-46 47 -8 0 -23 -9 -34 -20z"/>
</g>
</svg>
