<?xml version="1.0" standalone="no"?>
<!DOCTYPE svg PUBLIC "-//W3C//DTD SVG 20010904//EN"
 "http://www.w3.org/TR/2001/REC-SVG-20010904/DTD/svg10.dtd">
<svg version="1.0" xmlns="http://www.w3.org/2000/svg"
 width="607.000000pt" height="198.000000pt" viewBox="0 0 607.000000 198.000000"
 preserveAspectRatio="xMidYMid meet">

<g transform="translate(0.000000,198.000000) scale(0.100000,-0.100000)"
fill="#000000" stroke="none">
<path d="M3245 1670 c3 -5 17 -10 30 -10 13 0 27 5 30 10 4 6 -8 10 -30 10
-22 0 -34 -4 -30 -10z"/>
<path d="M3645 1670 c-3 -5 1 -10 9 -10 8 0 18 5 21 10 3 6 -1 10 -9 10 -8 0
-18 -4 -21 -10z"/>
<path d="M4000 1670 c0 -13 11 -13 30 0 12 8 11 10 -7 10 -13 0 -23 -4 -23
-10z"/>
<path d="M740 1591 c0 -86 12 -111 53 -111 48 0 57 15 57 97 0 57 -3 73 -15
73 -11 0 -15 -16 -17 -67 -2 -55 -6 -68 -20 -71 -16 -3 -18 5 -18 67 0 64 -2
71 -20 71 -18 0 -20 -7 -20 -59z"/>
<path d="M890 1564 c0 -64 3 -85 13 -82 6 3 14 22 17 44 l5 39 17 -42 c10 -26
23 -43 32 -43 13 0 16 14 16 85 0 69 -3 85 -15 85 -11 0 -15 -12 -16 -47 l-1
-48 -20 48 c-32 75 -48 62 -48 -39z"/>
<path d="M1030 1565 c0 -69 3 -85 15 -85 12 0 15 16 15 85 0 69 -3 85 -15 85
-12 0 -15 -16 -15 -85z"/>
<path d="M1090 1636 c0 -7 7 -46 16 -85 14 -63 19 -72 37 -69 16 2 23 15 34
63 7 33 15 70 18 83 4 17 1 22 -13 22 -16 0 -21 -11 -29 -62 l-9 -63 -13 63
c-9 39 -19 62 -27 62 -8 0 -14 -6 -14 -14z"/>
<path d="M1222 1568 l3 -83 43 -3 c33 -2 42 0 42 12 0 11 -10 16 -31 16 -26 0
-30 3 -27 23 2 16 11 23 31 25 15 2 27 7 27 12 0 5 -12 10 -27 12 -20 2 -28 9
-28 23 0 14 8 21 28 23 44 5 31 22 -18 22 l-46 0 3 -82z"/>
<path d="M1340 1565 c0 -69 3 -85 15 -85 10 0 15 10 15 33 0 19 3 36 6 40 11
11 34 -5 34 -23 0 -29 11 -50 26 -50 10 0 13 17 11 73 -1 39 -6 78 -10 85 -5
6 -28 12 -53 12 l-44 0 0 -85z m68 37 c3 -17 -2 -22 -17 -22 -14 0 -21 6 -21
18 0 38 33 41 38 4z"/>
<path d="M1480 1640 c0 -5 11 -10 25 -10 14 0 25 -2 25 -5 0 -3 -11 -28 -25
-55 -14 -27 -25 -58 -25 -70 0 -17 6 -20 45 -20 33 0 45 4 45 15 0 10 -10 15
-31 15 l-30 0 30 54 c43 75 41 86 -14 86 -25 0 -45 -4 -45 -10z"/>
<path d="M1600 1565 c0 -69 3 -85 15 -85 12 0 15 16 15 85 0 69 -3 85 -15 85
-12 0 -15 -16 -15 -85z"/>
<path d="M1660 1640 c0 -5 7 -10 15 -10 11 0 15 -17 17 -72 2 -46 7 -73 16
-76 9 -3 12 15 12 68 0 63 2 72 20 77 37 10 20 23 -30 23 -27 0 -50 -4 -50
-10z"/>
<path d="M1790 1608 c-6 -24 -15 -59 -21 -78 -12 -47 -12 -50 6 -50 9 0 20 11
25 25 5 14 14 25 20 25 6 0 15 -11 20 -25 12 -32 43 -34 35 -2 -3 12 -11 49
-18 82 -11 48 -18 61 -35 63 -17 3 -23 -4 -32 -40z m40 -38 c0 -11 -4 -20 -10
-20 -5 0 -10 9 -10 20 0 11 5 20 10 20 6 0 10 -9 10 -20z"/>
<path d="M2000 1580 c0 -40 -4 -70 -10 -70 -5 0 -10 7 -10 15 0 8 -7 15 -15
15 -19 0 -20 -34 -1 -50 8 -6 25 -10 38 -8 22 3 23 8 26 86 2 68 0 82 -13 82
-12 0 -15 -14 -15 -70z"/>
<path d="M2180 1564 l0 -85 42 3 c49 4 66 28 19 28 -26 0 -31 4 -31 25 0 20 5
25 25 25 31 0 33 17 3 22 -35 5 -31 42 5 46 44 5 31 22 -18 22 l-45 0 0 -86z"/>
<path d="M2420 1566 c0 -70 3 -86 15 -86 10 0 15 10 15 34 0 29 4 34 30 39 21
5 31 14 36 33 10 39 -7 59 -55 62 l-41 3 0 -85z m60 49 c14 -16 6 -35 -16 -35
-8 0 -14 10 -14 25 0 28 12 32 30 10z"/>
<path d="M2550 1577 c0 -80 9 -97 50 -97 41 0 50 17 50 97 0 58 -3 73 -15 73
-12 0 -15 -14 -15 -70 0 -63 -2 -70 -20 -70 -18 0 -20 7 -20 70 0 56 -3 70
-15 70 -12 0 -15 -15 -15 -73z"/>
<path d="M2690 1566 c0 -70 3 -86 15 -86 11 0 15 11 15 39 0 34 3 38 19 34 14
-3 21 -15 23 -36 2 -21 9 -33 21 -35 15 -3 17 1 11 23 -4 15 -7 52 -8 83 l-1
57 -47 3 -48 3 0 -85z m59 55 c17 -11 7 -41 -14 -41 -9 0 -15 9 -15 25 0 27 6
30 29 16z"/>
<path d="M2830 1565 c0 -69 3 -85 15 -85 10 0 15 10 15 30 0 17 4 30 9 30 5 0
14 -13 20 -30 5 -17 17 -30 27 -30 17 0 16 8 -7 67 -11 26 -10 36 1 60 8 15
16 31 18 36 2 4 -4 7 -12 7 -9 0 -25 -15 -36 -32 l-20 -33 0 33 c0 22 -5 32
-15 32 -12 0 -15 -16 -15 -85z"/>
<path d="M2950 1646 c0 -2 9 -25 20 -51 11 -26 20 -62 20 -81 0 -24 5 -34 15
-34 11 0 15 11 15 35 0 20 6 48 14 63 7 15 17 37 20 50 12 36 -23 28 -36 -9
l-11 -31 -13 31 c-7 17 -20 31 -29 31 -8 0 -15 -2 -15 -4z"/>
<path d="M3090 1566 c0 -70 3 -86 15 -86 11 0 15 12 16 48 l1 47 20 -47 c32
-76 48 -63 48 37 0 69 -3 85 -15 85 -11 0 -15 -12 -16 -47 l0 -48 -17 45 c-10
25 -25 46 -35 48 -15 3 -17 -6 -17 -82z"/>
<path d="M3230 1564 l0 -85 42 3 c49 4 66 28 19 28 -26 0 -31 4 -31 25 0 20 5
25 25 25 31 0 33 17 3 22 -35 5 -31 42 5 46 44 5 31 22 -18 22 l-45 0 0 -86z"/>
<path d="M3406 1614 c18 -97 30 -129 50 -132 18 -3 23 7 37 75 21 95 20 93 3
93 -16 0 -21 -12 -32 -80 l-7 -45 -9 40 c-16 78 -19 85 -34 85 -12 0 -14 -7
-8 -36z"/>
<path d="M3600 1577 c0 -82 9 -97 57 -97 41 0 53 25 53 111 0 52 -2 59 -20 59
-18 0 -20 -7 -20 -71 0 -62 -2 -70 -17 -67 -15 3 -19 16 -21 71 -2 51 -6 67
-17 67 -12 0 -15 -16 -15 -73z"/>
<path d="M3747 1644 c-19 -19 -6 -60 28 -87 35 -28 38 -47 9 -47 -8 0 -14 7
-14 15 0 8 -7 15 -15 15 -18 0 -20 -31 -3 -48 7 -7 24 -12 38 -12 60 0 67 54
14 98 -20 17 -33 35 -30 41 10 16 26 13 26 -4 0 -8 7 -15 16 -15 10 0 14 7 12
23 -2 17 -10 23 -38 25 -20 2 -39 0 -43 -4z"/>
<path d="M3860 1641 c0 -5 9 -11 20 -14 18 -5 20 -14 20 -77 0 -53 3 -71 13
-68 8 3 13 30 15 76 2 55 6 72 17 72 8 0 15 5 15 10 0 6 -22 10 -50 10 -27 0
-50 -4 -50 -9z"/>
<path d="M3990 1565 c0 -69 3 -85 15 -85 12 0 15 16 15 85 0 69 -3 85 -15 85
-12 0 -15 -16 -15 -85z"/>
<path d="M4120 1566 c0 -70 3 -86 15 -86 11 0 15 12 15 48 l1 47 21 -47 c33
-75 48 -63 48 37 0 69 -3 85 -15 85 -11 0 -15 -12 -16 -47 l0 -48 -18 45 c-10
25 -26 46 -35 48 -14 3 -16 -9 -16 -82z"/>
<path d="M4267 1572 c-20 -94 -20 -92 -3 -92 8 0 17 12 20 26 8 31 40 29 44
-4 4 -25 32 -31 32 -6 0 8 -7 46 -16 85 -14 60 -18 69 -38 69 -20 0 -24 -9
-39 -78z m52 -14 c1 -5 -5 -8 -13 -8 -9 0 -12 8 -8 27 5 25 6 25 13 8 4 -11 8
-23 8 -27z"/>
<path d="M4390 1565 l0 -85 33 0 c53 0 69 18 71 82 1 68 -13 88 -65 88 l-39 0
0 -85z m68 1 c-2 -39 -7 -52 -20 -54 -15 -3 -18 5 -18 51 0 58 4 69 26 60 11
-4 14 -19 12 -57z"/>
<path d="M4590 1565 l0 -85 45 0 c33 0 45 4 45 15 0 10 -10 15 -30 15 l-30 0
0 70 c0 56 -3 70 -15 70 -12 0 -15 -16 -15 -85z"/>
<path d="M4717 1572 c-20 -94 -20 -92 -3 -92 8 0 17 12 20 26 8 31 40 29 44
-4 4 -25 32 -31 32 -6 0 8 -7 46 -16 85 -14 60 -18 69 -38 69 -20 0 -24 -9
-39 -78z m52 -14 c1 -5 -5 -8 -13 -8 -9 0 -12 8 -8 27 5 25 6 25 13 8 4 -11 8
-23 8 -27z"/>
<path d="M4840 1566 l0 -86 35 0 c42 0 71 35 59 72 -4 13 -8 39 -8 58 -1 34
-2 35 -43 38 l-43 3 0 -85z m58 36 c-5 -27 -28 -26 -28 2 0 19 4 24 15 19 9
-3 15 -12 13 -21z m0 -70 c2 -15 -2 -22 -12 -22 -11 0 -16 9 -16 26 0 31 23
28 28 -4z"/>
<path d="M4970 1565 l0 -85 40 0 c29 0 40 4 40 15 0 9 -9 15 -25 15 -20 0 -25
5 -25 25 0 20 5 25 25 25 14 0 25 5 25 10 0 6 -11 10 -25 10 -20 0 -25 5 -25
25 0 20 5 25 25 25 14 0 25 5 25 10 0 6 -18 10 -40 10 l-40 0 0 -85z"/>
<path d="M5090 1564 c0 -64 3 -85 13 -82 6 3 14 26 16 54 l4 49 11 -48 c6 -26
16 -48 21 -48 6 0 15 21 22 46 17 67 23 67 23 2 0 -44 3 -57 15 -57 12 0 15
16 15 86 l0 85 -27 -3 c-24 -3 -29 -9 -37 -48 l-10 -45 -10 48 c-8 40 -13 47
-33 47 -22 0 -23 -3 -23 -86z"/>
<path d="M2080 1494 c0 -9 5 -14 12 -12 18 6 21 28 4 28 -9 0 -16 -7 -16 -16z"/>
<path d="M2302 1498 c6 -18 28 -21 28 -4 0 9 -7 16 -16 16 -9 0 -14 -5 -12
-12z"/>
<path d="M860 1306 c25 -23 810 -636 815 -636 3 0 5 35 5 78 l0 77 -315 248
-316 247 -102 0 c-86 0 -99 -2 -87 -14z"/>
<path d="M2403 1313 c-8 -3 -7 -10 5 -23 11 -14 19 -16 28 -9 8 7 14 7 19 -1
3 -5 4 -10 0 -10 -3 0 -1 -9 5 -21 7 -11 14 -18 17 -15 3 3 12 -2 20 -10 8 -8
19 -12 24 -9 5 4 9 0 9 -8 0 -29 43 -52 90 -48 13 1 13 2 0 11 -8 5 -22 7 -30
5 -8 -2 -20 -1 -26 3 -10 7 -28 42 -27 52 1 3 -6 11 -14 19 -13 12 -14 11 -8
-9 5 -15 4 -20 -4 -16 -6 4 -11 14 -11 21 0 8 -6 12 -13 9 -7 -2 -13 3 -13 13
0 15 7 17 41 14 22 -2 45 -7 50 -12 13 -9 41 -6 52 6 4 4 3 5 -3 2 -7 -4 -17
0 -24 8 -8 10 -31 15 -72 15 -32 0 -57 4 -54 8 2 4 -4 9 -15 9 -13 1 -17 -2
-12 -10 5 -9 3 -9 -8 -1 -8 6 -19 9 -26 7z m182 -33 c3 -5 1 -10 -4 -10 -6 0
-11 5 -11 10 0 6 2 10 4 10 3 0 8 -4 11 -10z"/>
<path d="M2896 1298 c252 -201 801 -628 807 -628 4 0 7 35 5 77 l-3 78 -315
247 -315 248 -104 0 -104 0 29 -22z"/>
<path d="M3390 1307 c21 -20 792 -622 808 -631 9 -5 12 11 12 71 l0 79 -315
247 -316 247 -102 0 c-85 0 -99 -2 -87 -13z"/>
<path d="M3900 1306 c26 -24 810 -636 816 -636 3 0 4 35 2 77 l-3 77 -315 248
-315 247 -100 1 c-85 0 -97 -2 -85 -14z"/>
<path d="M4445 1310 c-3 -6 1 -7 9 -4 18 7 21 14 7 14 -6 0 -13 -4 -16 -10z"/>
<path d="M4540 1313 c0 -13 20 -39 20 -26 0 6 8 10 18 8 9 -2 21 -4 25 -4 5
-1 6 -5 3 -9 -3 -5 1 -9 8 -9 8 0 12 6 9 14 -3 7 -11 13 -19 13 -8 0 -14 6
-14 13 0 9 -3 8 -9 -2 -6 -9 -11 -10 -15 -2 -8 12 -26 15 -26 4z"/>
<path d="M4474 1279 c-3 -6 0 -18 9 -26 10 -10 17 -12 22 -4 4 7 1 10 -7 9 -7
-2 -12 5 -12 15 2 20 -2 22 -12 6z"/>
<path d="M4566 1272 c-3 -5 1 -9 9 -9 8 0 12 4 9 9 -3 4 -7 8 -9 8 -2 0 -6 -4
-9 -8z"/>
<path d="M4533 1259 c13 -8 15 -14 7 -29 -10 -19 4 -39 17 -26 4 3 1 6 -5 6
-6 0 -9 7 -6 15 4 8 10 12 16 9 5 -3 4 3 -4 15 -7 12 -20 21 -28 21 -12 -1
-11 -3 3 -11z"/>
<path d="M4645 1260 c-4 -6 -16 -8 -27 -4 -18 5 -19 4 -7 -9 12 -13 16 -13 30
-1 12 11 18 11 29 1 12 -10 12 -9 1 6 -16 20 -18 20 -26 7z"/>
<path d="M2549 1258 c-6 -21 -5 -38 2 -38 5 0 9 9 9 20 0 16 -7 28 -11 18z"/>
<path d="M2641 1213 c-1 -60 -4 -72 -13 -67 -4 3 -8 -1 -8 -9 0 -19 36 -50 49
-42 6 3 16 -5 23 -19 6 -14 15 -26 19 -26 4 0 15 -7 24 -16 9 -9 19 -13 23 -9
4 4 1 10 -6 12 -6 3 -9 9 -6 15 3 5 12 1 20 -10 7 -11 23 -22 34 -25 17 -4 20
-1 18 21 -2 20 2 27 17 30 l20 4 -20 -17 c-16 -14 -17 -16 -3 -11 10 3 17 2
17 -2 -4 -22 3 -30 21 -25 18 5 25 -5 21 -29 0 -5 4 -8 10 -8 5 0 7 -5 3 -12
-5 -8 -2 -9 10 -5 10 4 15 3 11 -3 -3 -5 1 -20 8 -32 8 -13 13 -31 12 -41 -2
-11 -1 -16 3 -12 9 8 11 55 2 55 -4 0 -7 7 -7 15 0 8 7 15 14 15 8 0 12 -3 9
-8 -2 -4 13 -8 34 -8 22 -1 37 3 35 7 -3 4 -14 5 -25 2 -16 -4 -19 -2 -14 11
4 11 -4 21 -25 33 -17 10 -31 22 -31 27 0 6 -7 1 -16 -10 -12 -15 -14 -15 -11
-2 4 10 -1 18 -14 21 -13 4 -17 10 -12 23 4 12 3 15 -5 10 -7 -4 -12 -15 -12
-24 0 -14 -2 -15 -10 -2 -5 9 -5 19 2 27 12 15 12 15 -19 18 -12 1 -24 -4 -27
-12 -3 -8 -11 -11 -17 -7 -8 4 -9 3 -5 -4 4 -7 2 -12 -3 -12 -14 0 -14 11 -1
45 12 33 4 51 -16 34 -10 -8 -18 -9 -25 -2 -8 8 -7 13 2 18 8 6 10 4 4 -5 -5
-8 -4 -11 3 -6 6 4 9 13 5 22 -4 10 -9 12 -18 4 -10 -8 -13 -6 -11 7 1 15 -6
18 -38 15 -31 -2 -37 1 -32 13 4 11 2 14 -6 9 -7 -4 -8 -3 -4 5 4 6 12 9 17 5
5 -3 7 -9 4 -14 -3 -5 3 -8 14 -7 16 1 15 4 -9 29 -16 15 -31 28 -33 28 -3 0
-5 -17 -6 -37z m132 -107 c3 3 4 -2 2 -13 -2 -10 -4 -22 -4 -27 -1 -5 -4 -6
-8 -3 -3 4 -12 2 -20 -4 -10 -9 -17 -8 -28 1 -17 14 -21 45 -5 35 9 -6 14 8
11 28 -1 4 9 1 22 -8 13 -8 26 -12 30 -9z m28 -74 c-7 -2 -18 1 -23 6 -8 8 -4
9 13 5 13 -4 18 -8 10 -11z m189 -63 c0 -6 -7 -8 -16 -5 -9 3 -19 6 -24 6 -4
0 -10 9 -13 20 -5 18 -3 19 24 4 16 -8 29 -19 29 -25z"/>
<path d="M2734 1093 c10 -11 37 -12 30 -2 -3 5 -12 9 -21 9 -9 0 -13 -3 -9 -7z"/>
<path d="M2715 1070 c3 -5 8 -10 11 -10 2 0 4 5 4 10 0 6 -5 10 -11 10 -5 0
-7 -4 -4 -10z"/>
<path d="M4646 1231 c-4 -5 -2 -12 4 -16 6 -4 8 -11 5 -16 -4 -5 3 -9 13 -9
24 0 52 -29 31 -32 -30 -3 -35 -4 -54 -16 -11 -6 -15 -12 -8 -12 6 0 15 5 18
10 4 6 11 8 16 4 5 -3 7 -9 5 -13 -3 -4 0 -13 6 -21 8 -12 9 -12 4 3 -3 9 -1
17 5 17 6 0 7 5 3 11 -4 8 1 9 17 4 17 -4 20 -3 10 3 -9 7 -10 12 -2 16 14 9
32 -2 30 -17 -3 -23 1 -37 10 -37 10 0 7 32 -4 50 -11 17 7 11 22 -7 13 -16
13 -16 3 4 -11 24 -30 40 -30 25 0 -5 -8 -8 -17 -7 -24 2 -74 35 -68 45 3 5 1
11 -4 14 -5 4 -12 2 -15 -3z"/>
<path d="M4605 1180 c-3 -5 -1 -10 4 -10 6 0 11 5 11 10 0 6 -2 10 -4 10 -3 0
-8 -4 -11 -10z"/>
<path d="M2803 1104 c-8 -21 -1 -25 20 -9 15 11 16 13 2 19 -9 3 -18 -1 -22
-10z"/>
<path d="M4780 1105 c-7 -8 -16 -12 -21 -9 -11 7 -11 -17 0 -35 5 -7 14 -10
20 -7 15 9 3 28 -12 20 -7 -3 -3 2 7 10 16 13 22 13 35 3 14 -11 15 -10 1 8
-8 11 -15 21 -16 23 -1 1 -7 -4 -14 -13z"/>
<path d="M4696 1092 c-3 -5 1 -9 9 -9 8 0 12 4 9 9 -3 4 -7 8 -9 8 -2 0 -6 -4
-9 -8z"/>
<path d="M4840 1070 c0 -5 5 -10 11 -10 5 0 7 5 4 10 -3 6 -8 10 -11 10 -2 0
-4 -4 -4 -10z"/>
<path d="M4740 1050 c6 -11 13 -20 16 -20 2 0 0 9 -6 20 -6 11 -13 20 -16 20
-2 0 0 -9 6 -20z"/>
<path d="M4902 1065 c4 -4 3 -16 -3 -26 -5 -11 -7 -19 -5 -19 3 0 10 9 16 19
7 15 7 22 -2 27 -7 4 -10 4 -6 -1z"/>
<path d="M4791 1046 c-9 -10 -9 -16 -1 -21 6 -4 10 -3 9 2 -3 20 2 27 11 13 6
-9 10 -10 10 -3 0 19 -17 24 -29 9z"/>
<path d="M4857 1033 c-9 -8 12 -33 27 -33 6 0 3 5 -8 11 -15 9 -16 13 -5 20 8
5 9 9 3 9 -6 0 -14 -3 -17 -7z"/>
<path d="M4926 1029 c2 -4 -2 -10 -8 -12 -8 -4 -9 -6 -2 -6 6 -1 17 5 23 12 8
10 7 14 -4 14 -8 0 -12 -4 -9 -8z"/>
<path d="M2825 1013 c-5 -10 -7 -22 -6 -28 1 -5 -6 -1 -14 9 -12 16 -15 17
-15 4 0 -20 19 -28 45 -17 11 4 14 8 8 8 -7 1 -13 6 -13 12 0 8 5 7 15 -1 11
-9 13 -16 5 -24 -5 -5 -10 -16 -10 -24 0 -9 7 -6 19 9 21 27 22 44 3 44 -7 0
-17 6 -21 13 -6 11 -10 10 -16 -5z"/>
<path d="M4976 995 c5 -11 2 -13 -10 -9 -9 3 -16 1 -16 -6 0 -6 5 -8 10 -5 6
3 10 1 10 -4 0 -6 5 -11 10 -11 6 0 9 6 8 13 -2 6 3 11 10 10 18 -4 15 5 -8
17 -16 9 -18 8 -14 -5z"/>
<path d="M4848 993 c9 -4 10 -8 2 -18 -11 -13 -8 -13 29 -6 9 2 -23 31 -33 30
-6 0 -6 -3 2 -6z"/>
<path d="M5010 958 c-12 -22 -12 -22 6 -6 10 10 15 20 12 24 -4 3 -12 -5 -18
-18z"/>
<path d="M2869 968 c-6 -21 -5 -37 2 -32 5 3 12 -2 15 -10 3 -9 10 -13 15 -10
5 3 9 -2 9 -10 0 -8 4 -17 8 -20 16 -10 6 33 -13 58 -17 22 -33 33 -36 24z
m22 -25 c13 -16 12 -17 -3 -4 -10 7 -18 15 -18 17 0 8 8 3 21 -13z"/>
<path d="M4876 951 c-3 -5 2 -15 12 -22 15 -12 16 -12 5 2 -7 9 -10 19 -6 22
3 4 4 7 0 7 -3 0 -8 -4 -11 -9z"/>
<path d="M4935 940 c-3 -5 -1 -10 4 -10 6 0 11 5 11 10 0 6 -2 10 -4 10 -3 0
-8 -4 -11 -10z"/>
<path d="M4951 924 c-20 -24 -7 -27 19 -4 14 13 18 20 9 20 -8 -1 -20 -8 -28
-16z"/>
<path d="M5063 926 c3 -8 -3 -22 -14 -32 -17 -15 -18 -19 -4 -26 8 -5 15 -16
15 -25 0 -11 7 -14 28 -9 23 5 25 4 12 -6 -8 -7 -16 -20 -18 -28 -2 -11 1 -11
11 3 14 16 43 25 33 9 -2 -4 2 -15 9 -25 12 -16 13 -16 19 -1 4 9 4 19 1 22
-3 3 -5 0 -5 -7 0 -7 -5 -9 -10 -6 -6 4 -8 10 -5 15 3 5 1 11 -5 15 -6 4 -8
10 -5 15 3 5 -8 7 -24 5 -23 -3 -29 -1 -24 11 3 7 9 14 13 14 10 0 7 40 -4 58
-10 17 -29 15 -23 -2z m16 -22 c-9 -11 -9 -14 1 -14 10 0 10 -3 0 -15 -9 -11
-16 -13 -23 -6 -7 7 -5 16 6 29 9 10 14 22 10 27 -5 4 -2 5 5 1 10 -6 10 -11
1 -22z"/>
<path d="M3060 910 c0 -6 7 -13 15 -16 12 -5 13 -9 4 -20 -6 -8 -17 -14 -23
-13 -25 3 -36 -2 -36 -17 0 -8 -5 -12 -10 -9 -6 4 -8 10 -6 14 3 4 -1 8 -9 8
-8 0 -15 -7 -15 -14 0 -8 4 -12 9 -8 5 3 16 -3 23 -13 20 -28 76 -64 82 -53 4
5 2 12 -4 16 -7 4 -7 12 0 25 13 25 13 33 -2 28 -7 -3 -13 -13 -13 -23 0 -10
-6 -20 -13 -23 -9 -3 -11 4 -8 22 4 24 3 25 -17 15 -21 -10 -21 -10 -2 6 10 8
24 14 30 12 5 -2 16 3 23 12 8 9 11 11 8 5 -3 -7 1 -17 10 -24 12 -11 12 -15
2 -21 -8 -5 -6 -8 9 -6 20 1 21 3 6 30 -11 23 -12 28 -1 25 7 -3 13 -9 13 -14
2 -31 17 -49 42 -50 16 -1 22 1 15 3 -6 3 -10 8 -7 13 4 7 -60 63 -75 66 -19
3 -39 18 -34 25 3 5 0 9 -5 9 -6 0 -11 -5 -11 -10z m116 -88 c-4 -3 -14 2 -24
12 -16 18 -16 18 6 6 13 -6 21 -14 18 -18z"/>
<path d="M4998 913 c6 -3 12 -9 12 -14 0 -6 -5 -7 -12 -3 -7 5 -8 3 -3 -6 6
-10 10 -10 19 2 6 8 18 17 26 20 8 3 -1 6 -20 5 -19 0 -29 -2 -22 -4z"/>
<path d="M3040 898 c0 -9 7 -19 16 -22 15 -6 15 -4 3 11 -7 10 -15 20 -16 22
-2 2 -3 -3 -3 -11z"/>
<path d="M5013 852 c0 -12 7 -24 13 -26 15 -6 12 20 -4 36 -8 8 -11 6 -9 -10z"/>
<path d="M5173 816 c0 -8 5 -12 10 -9 6 4 8 -3 5 -15 -4 -12 -2 -22 3 -22 5 0
9 5 9 11 0 5 6 7 13 3 8 -5 8 -2 -2 9 -9 11 -10 17 -2 17 6 0 11 5 11 11 0 8
-4 8 -13 0 -9 -7 -17 -7 -24 0 -6 6 -10 5 -10 -5z"/>
<path d="M5056 807 c3 -10 9 -15 12 -12 3 3 0 11 -7 18 -10 9 -11 8 -5 -6z"/>
<path d="M3100 785 c6 -7 7 -20 4 -29 -5 -14 -2 -16 22 -11 16 3 23 2 16 -1
-15 -7 -6 -24 14 -24 9 0 12 5 8 12 -4 7 -3 8 4 4 7 -4 12 -3 12 3 0 5 -3 11
-7 14 -5 2 -3 2 4 1 7 -2 15 1 18 6 4 6 -1 10 -9 10 -9 0 -16 4 -16 10 0 5 8
7 18 3 10 -3 14 -2 9 3 -5 5 -31 9 -58 10 -39 2 -47 -1 -39 -11z m40 -19 c0
-2 -7 -7 -16 -10 -8 -3 -12 -2 -9 4 6 10 25 14 25 6z"/>
<path d="M5118 758 c7 -9 22 -15 32 -13 17 3 36 -19 32 -37 -1 -5 2 -8 7 -8 5
0 8 11 7 24 0 13 -4 22 -8 19 -5 -2 -8 1 -8 6 0 6 -10 9 -22 7 -13 -2 -30 2
-38 8 -13 9 -13 9 -2 -6z"/>
<path d="M3171 720 c-21 -18 -16 -26 12 -21 5 1 6 -3 3 -8 -4 -5 -2 -13 4 -16
7 -4 10 6 8 29 -1 20 -2 36 -3 36 0 -1 -11 -10 -24 -20z"/>
<path d="M5205 690 c-3 -5 -1 -10 4 -10 6 0 11 5 11 10 0 6 -2 10 -4 10 -3 0
-8 -4 -11 -10z"/>
</g>
</svg>
